<svg width="1428" height="391" viewBox="0 0 1428 391" fill="none" xmlns="http://www.w3.org/2000/svg">
<g opacity="0.5">
<path d="M968.315 71.1561C969.263 74.7601 972.045 77.6055 975.649 78.5539L979.506 79.5656L975.649 80.5773C972.045 81.5257 969.263 84.371 968.315 87.9751L967.303 92.0218L966.291 87.9751C965.343 84.371 962.561 81.5257 958.957 80.5773L955.1 79.5656L958.957 78.5539C962.561 77.6055 965.343 74.7601 966.291 71.1561L967.303 67.1094L968.315 71.1561ZM967.303 84.7504C968.441 82.5374 970.275 80.7037 972.488 79.5656C970.275 78.3642 968.504 76.5938 967.303 74.3808C966.165 76.5938 964.331 78.4275 962.118 79.5656C964.331 80.7669 966.102 82.5374 967.303 84.7504Z" fill="#FF9C31"/>
<path d="M841.697 345.486C842.646 349.09 845.428 351.936 849.032 352.884L852.889 353.896L849.032 354.907C845.428 355.856 842.646 358.701 841.697 362.305L840.686 366.352L839.674 362.305C838.726 358.701 835.944 355.856 832.339 354.907L828.482 353.896L832.339 352.884C835.944 351.936 838.726 349.09 839.674 345.486L840.686 341.439L841.697 345.486ZM840.622 359.08C841.761 356.867 843.594 355.034 845.807 353.896C843.594 352.694 841.824 350.924 840.622 348.711C839.484 350.924 837.651 352.758 835.438 353.896C837.651 355.097 839.484 356.867 840.622 359.08Z" fill="#FF9C31"/>
<path d="M1427.81 358.376C1427.81 361.727 1425.09 364.446 1421.74 364.446C1418.38 364.446 1415.67 361.727 1415.67 358.376C1415.67 355.025 1418.38 352.306 1421.74 352.306C1425.02 352.306 1427.81 355.025 1427.81 358.376ZM1425.66 358.376C1425.66 356.226 1423.89 354.455 1421.74 354.455C1419.59 354.455 1417.82 356.226 1417.82 358.376C1417.82 360.526 1419.59 362.296 1421.74 362.296C1423.89 362.296 1425.66 360.589 1425.66 358.376Z" fill="#3BB2F4"/>
<path d="M191.349 384.638C191.349 387.989 188.63 390.708 185.279 390.708C181.928 390.708 179.209 387.989 179.209 384.638C179.209 381.286 181.928 378.567 185.279 378.567C188.63 378.504 191.349 381.223 191.349 384.638ZM189.199 384.638C189.199 382.488 187.429 380.717 185.279 380.717C183.129 380.717 181.359 382.488 181.359 384.638C181.359 386.787 183.129 388.558 185.279 388.558C187.429 388.558 189.199 386.787 189.199 384.638Z" fill="#E22D80"/>
<path d="M268.039 16.657C268.039 20.0082 265.32 22.7271 261.968 22.7271C258.617 22.7271 255.898 20.0082 255.898 16.657C255.898 13.3059 258.617 10.587 261.968 10.587C265.32 10.5238 268.039 13.2427 268.039 16.657ZM265.889 16.657C265.889 14.5072 264.118 12.7368 261.968 12.7368C259.819 12.7368 258.048 14.5072 258.048 16.657C258.048 18.8069 259.819 20.5773 261.968 20.5773C264.118 20.5773 265.889 18.8069 265.889 16.657Z" fill="#FF9C31"/>
<path d="M9.10586 219.186H6.95605V235.246H9.10586V219.186Z" fill="#FF9C31"/>
<path d="M16.0603 226.141H0V228.29H16.0603V226.141Z" fill="#FF9C31"/>
<path d="M1250.95 14.6766L1239.59 26.0327L1241.11 27.5528L1252.47 16.1967L1250.95 14.6766Z" fill="#E22D80"/>
<path d="M1241.11 14.6767L1239.59 16.1968L1250.95 27.5529L1252.47 26.0328L1241.11 14.6767Z" fill="#E22D80"/>
<path d="M44.2234 0.938214L32.8672 12.2944L34.3873 13.8146L45.7436 2.45834L44.2234 0.938214Z" fill="#3BB2F4"/>
<path d="M34.3863 0.937395L32.8662 2.45752L44.2225 13.8137L45.7426 12.2936L34.3863 0.937395Z" fill="#3BB2F4"/>
<path d="M525.507 367.086L514.15 378.442L515.671 379.963L527.027 368.606L525.507 367.086Z" fill="#3BB2F4"/>
<path d="M515.668 367.097L514.147 368.617L525.504 379.973L527.024 378.453L515.668 367.097Z" fill="#3BB2F4"/>
</g>
</svg>
