<svg width="14" height="14" viewBox="0 0 14 14" fill="none" xmlns="http://www.w3.org/2000/svg">
<g clipPath="url(#clip0_380_4062)">
<path d="M1.88568 8.03296C0.845933 8.03296 0 8.87889 0 9.91864V12.1143C0 13.1541 0.845933 14 1.88571 14C2.92548 14 3.77139 13.1541 3.77139 12.1143V9.91864C3.77139 8.87889 2.92545 8.03296 1.88568 8.03296ZM2.67761 12.1143C2.67761 12.551 2.32236 12.9063 1.88568 12.9063C1.44903 12.9063 1.09375 12.551 1.09375 12.1143V9.91864C1.09375 9.48196 1.44903 9.12671 1.88571 9.12671C2.32239 9.12671 2.67764 9.48199 2.67761 9.91864V12.1143Z" fill="#321463"/>
<path d="M6.99996 0C5.96019 0 5.11426 0.845933 5.11426 1.88571V12.1143C5.11426 13.1541 5.96019 14 6.99996 14C8.03973 14 8.88566 13.1541 8.88566 12.1143V1.88571C8.88566 0.845933 8.03973 0 6.99996 0ZM7.79191 12.1143C7.79191 12.551 7.43664 12.9062 6.99996 12.9062C6.56328 12.9062 6.208 12.551 6.208 12.1143V1.88571C6.208 1.449 6.56328 1.09375 6.99996 1.09375C7.43664 1.09375 7.79191 1.449 7.79191 1.88571V12.1143Z" fill="#321463"/>
<path d="M12.1142 4.01648C11.0744 4.01648 10.2285 4.86241 10.2285 5.90219V12.1143C10.2285 13.1541 11.0744 14 12.1142 14C13.154 14 13.9999 13.1541 13.9999 12.1143V5.90219C13.9999 4.86241 13.154 4.01648 12.1142 4.01648ZM12.9062 12.1143C12.9062 12.551 12.5509 12.9063 12.1142 12.9063C11.6775 12.9063 11.3223 12.551 11.3223 12.1143V5.90219C11.3223 5.46548 11.6775 5.11023 12.1142 5.11023C12.5509 5.11023 12.9062 5.46548 12.9062 5.90219V12.1143Z" fill="#321463"/>
</g>
<defs>
<clipPath id="clip0_380_4062">
<rect width="14" height="14" fill="white"/>
</clipPath>
</defs>
</svg>
