<svg width="14" height="14" viewBox="0 0 14 14" fill="none" xmlns="http://www.w3.org/2000/svg">
<g clipPath="url(#clip0_380_4058)">
<path d="M6.99993 0C3.14017 0 0 3.1401 0 6.9998C0 10.8598 3.14017 14 6.99993 14C10.8596 14 13.9997 10.8597 13.9997 6.9998C13.9997 3.1401 10.8596 0 6.99993 0ZM6.99993 12.9966C3.69346 12.9966 1.00344 10.3064 1.00344 6.9998C1.00344 3.6934 3.69346 1.00344 6.99993 1.00344C10.3063 1.00344 12.9963 3.6934 12.9963 6.9998C12.9963 10.3064 10.3063 12.9966 6.99993 12.9966Z" fill="#321463"/>
<path d="M10.5996 6.88267H7.31008V3.28688C7.31008 3.00979 7.08551 2.78516 6.80836 2.78516C6.53128 2.78516 6.30664 3.00979 6.30664 3.28688V7.38439C6.30664 7.66147 6.53128 7.88611 6.80836 7.88611H10.5996C10.8768 7.88611 11.1013 7.66147 11.1013 7.38439C11.1013 7.10731 10.8767 6.88267 10.5996 6.88267Z" fill="#321463"/>
</g>
<defs>
<clipPath id="clip0_380_4058">
<rect width="14" height="14" fill="white"/>
</clipPath>
</defs>
</svg>
