<svg width="16" height="16" viewBox="0 0 16 16" fill="none" xmlns="http://www.w3.org/2000/svg">
<g clip-path="url(#clip0_380_4083)">
<path d="M10.3145 6.52305L9.16797 7.66674C8.98454 7.84974 8.98435 8.14683 9.16757 8.33005L10.2925 9.45499C11.1042 10.2667 12.4266 10.2976 13.2488 9.49649C14.0842 8.68249 14.0907 7.3453 13.2685 6.52305C12.4527 5.70732 11.1302 5.70732 10.3145 6.52305ZM12.6055 8.81409C12.156 9.26368 11.427 9.26368 10.9774 8.81409L10.1634 8.00002L10.9774 7.18595C11.427 6.73636 12.156 6.73636 12.6055 7.18595C13.0551 7.63555 13.0551 8.36449 12.6055 8.81409Z" fill="#321463"/>
<path d="M14.7674 5.02423C13.1239 3.38076 10.4594 3.38076 8.81591 5.02423L8.00001 5.84014L7.1841 5.02423C5.54063 3.38076 2.87607 3.38076 1.2326 5.02423C-0.410867 6.6677 -0.410867 9.33227 1.2326 10.9757C2.87607 12.6192 5.54063 12.6192 7.1841 10.9757L8.00001 10.1598L8.81591 10.9757C10.4594 12.6192 13.1239 12.6192 14.7674 10.9757C16.4109 9.33227 16.4109 6.6677 14.7674 5.02423ZM14.1218 10.2954C12.8428 11.5934 10.7399 11.574 9.45141 10.2854L8.33144 9.16549C8.14838 8.98242 7.8516 8.98242 7.66854 9.16549L6.54857 10.2854C5.26001 11.574 3.15723 11.5934 1.8782 10.2954C0.623914 9.02255 0.623914 6.97745 1.8782 5.70457C3.15723 4.40657 5.26004 4.42598 6.54857 5.71454L7.66854 6.83448C7.8516 7.01755 8.14838 7.01755 8.33144 6.83448L9.45141 5.71454C10.74 4.42598 12.8428 4.40657 14.1218 5.70457C15.3761 6.97745 15.3761 9.02252 14.1218 10.2954Z" fill="#321463"/>
<path d="M5.68555 6.52304C4.8467 5.6842 3.47189 5.70798 2.66345 6.59441C1.94161 7.38588 1.94161 8.61416 2.66345 9.40566C3.47189 10.2921 4.8467 10.3159 5.68555 9.47704L6.83108 8.33151C7.01414 8.14845 7.01414 7.85167 6.83108 7.6686L5.68555 6.52304ZM5.02264 8.81407C4.57305 9.26366 3.84411 9.26366 3.39452 8.81407C2.94492 8.36448 2.94492 7.63554 3.39452 7.18595C3.84411 6.73635 4.57305 6.73635 5.02264 7.18595L5.8367 8.00001L5.02264 8.81407Z" fill="#321463"/>
</g>
<defs>
<clipPath id="clip0_380_4083">
<rect width="16" height="16" fill="white"/>
</clipPath>
</defs>
</svg>
