<svg width="14" height="14" viewBox="0 0 14 14" fill="none" xmlns="http://www.w3.org/2000/svg">
<g clip-path="url(#clip0_380_4054)">
<path d="M13.9858 7.80913C13.8754 6.80274 13.1018 5.98282 12.1045 5.8152C12.1349 5.8152 11.7138 5.73522 11.2607 5.82822V4.10874C11.2607 3.35356 10.6463 2.7392 9.89115 2.7392H8.1717C8.44276 1.41812 7.51157 0.15895 6.19079 0.014165C4.63502 -0.156569 3.38938 1.23654 3.69872 2.7392H1.36953C0.614357 2.7392 0 3.35359 0 4.10874V6.48545C0 6.83684 0.381553 7.05649 0.685368 6.88045C0.965039 6.71842 1.28329 6.66138 1.60545 6.71557C2.19236 6.8142 2.66549 7.31598 2.73045 7.9086C2.82304 8.75306 2.16069 9.43476 1.36953 9.43476C1.13063 9.43476 0.894055 9.37086 0.685341 9.24997C0.381143 9.07377 0 9.29411 0 9.64498V12.6304C0 13.3856 0.614357 13.9999 1.36953 13.9999H4.35494C4.70652 13.9999 4.92588 13.6183 4.74995 13.3146C4.58794 13.0349 4.53092 12.7167 4.58509 12.3945C4.68369 11.8076 5.18545 11.3344 5.77809 11.2695C6.62427 11.1768 7.30425 11.8411 7.30425 12.6304C7.30425 12.8693 7.24035 13.1059 7.11946 13.3146C6.94321 13.6188 7.16357 13.9999 7.51447 13.9999H9.89118C10.6464 13.9999 11.2607 13.3856 11.2607 12.6304V10.3013C11.4106 10.3321 11.5636 10.3478 11.7172 10.3478C13.0693 10.3478 14.1354 9.17437 13.9858 7.80913ZM11.7172 9.43476C11.4783 9.43476 11.2417 9.37086 11.033 9.24997C10.8917 9.16816 10.7176 9.16797 10.5762 9.24948C10.4348 9.33099 10.3476 9.48179 10.3476 9.64501V12.6304C10.3476 12.8821 10.1428 13.0869 9.8911 13.0869H8.17061C8.20148 12.937 8.2172 12.7841 8.2172 12.6304C8.2172 11.2787 7.04427 10.2123 5.67851 10.3619C4.67213 10.4722 3.8522 11.2458 3.68458 12.2432C3.63657 12.529 3.64143 12.8131 3.69763 13.0869H1.36953C1.11781 13.0869 0.913032 12.8821 0.913032 12.6304V10.3013C1.06293 10.3322 1.21589 10.3479 1.36953 10.3479C2.72162 10.3479 3.7877 9.17442 3.63807 7.80918C3.52771 6.8028 2.75411 5.98287 1.75677 5.81526C1.47101 5.76716 1.18685 5.77208 0.913004 5.82827V4.10879C0.913004 3.85707 1.11781 3.65229 1.36951 3.65229H4.35491C4.7065 3.65229 4.92585 3.2706 4.74992 2.96695C4.19301 2.00549 4.95923 0.797861 6.09126 0.921837C7.04438 1.02632 7.6222 2.09912 7.11938 2.96692C6.94313 3.27115 7.16349 3.65229 7.51439 3.65229H9.8911C10.1428 3.65229 10.3476 3.8571 10.3476 4.10879V6.4855C10.3476 6.8369 10.7292 7.05655 11.033 6.88051C11.3126 6.71847 11.6308 6.66143 11.9531 6.71563H11.9531C12.54 6.81426 13.0131 7.31604 13.0781 7.90866C13.1707 8.75306 12.5084 9.43476 11.7172 9.43476Z" fill="#321463"/>
</g>
<defs>
<clipPath id="clip0_380_4054">
<rect width="14" height="14" fill="white"/>
</clipPath>
</defs>
</svg>
