<svg width="16" height="16" viewBox="0 0 16 16" fill="none" xmlns="http://www.w3.org/2000/svg">
<g clip-path="url(#clip0_380_4072)">
<path d="M11.6829 9.63428C11.6377 9.48364 11.4519 9.41321 11.2611 9.41321C11.0753 9.41321 10.8895 9.48364 10.8444 9.63428L9.87524 12.7925C9.87024 12.8126 9.86523 12.8326 9.86523 12.8427C9.86523 13.0034 10.1012 13.1138 10.277 13.1138C10.3875 13.1138 10.4728 13.0787 10.4979 12.9833L10.6886 12.3154H11.8385L12.0294 12.9833C12.0544 13.0787 12.1398 13.1138 12.2502 13.1138C12.426 13.1138 12.662 12.9984 12.662 12.8427C12.662 12.8276 12.657 12.8125 12.652 12.7925L11.6829 9.63428ZM10.8242 11.8032L11.261 10.2618L11.698 11.8032H10.8242Z" fill="#321463"/>
<path d="M14.2761 6.5271H9.47278V4.47559L11.0338 3.3606C11.157 3.27258 11.2301 3.13062 11.2301 2.97925C11.2301 2.82776 11.157 2.68579 11.0338 2.59778L9.45398 1.46936C9.33057 0.639038 8.61292 0 7.7489 0H1.724C0.773315 0 0 0.773315 0 1.724V7.74902C0 8.69958 0.773315 9.4729 1.724 9.4729H6.52722V11.5244L4.96619 12.6394C4.84302 12.7274 4.7699 12.8695 4.7699 13.0209C4.7699 13.1722 4.84302 13.3143 4.96619 13.4022L6.54602 14.5306C6.66943 15.361 7.38708 16 8.2511 16H14.2761C15.2267 16 16 15.2266 16 14.276V8.2511C16 7.30042 15.2267 6.5271 14.2761 6.5271ZM1.724 8.5354C1.29028 8.5354 0.9375 8.18262 0.9375 7.7489V1.72388C0.9375 1.29028 1.29028 0.9375 1.724 0.9375H7.7489C8.1825 0.9375 8.53528 1.29028 8.53528 1.72388C8.53528 1.87537 8.6084 2.01746 8.73157 2.10535L9.95483 2.97913L8.73157 3.85291C8.6084 3.94092 8.53528 4.08301 8.53528 4.23438V6.5271H8.2511C7.30054 6.5271 6.52722 7.30042 6.52722 8.25098V8.5354H1.724ZM15.0625 14.276C15.0625 14.7097 14.7097 15.0625 14.2761 15.0625H8.2511C7.8175 15.0625 7.46472 14.7097 7.46472 14.276C7.46472 14.1246 7.3916 13.9825 7.26843 13.8947L6.04517 13.0209L7.26843 12.1471C7.3916 12.0591 7.46472 11.917 7.46472 11.7656V8.2511C7.46472 7.81738 7.8175 7.4646 8.2511 7.4646H9.00281H9.00403H9.00525H14.2761C14.7097 7.4646 15.0625 7.81738 15.0625 8.2511V14.276Z" fill="#321463"/>
<path d="M6.177 4.32117C6.32288 4.32117 6.44128 4.20276 6.44128 4.05676C6.44128 3.91077 6.32288 3.79236 6.177 3.79236H5.0011V3.15051C5.0011 3.00452 4.88269 2.88611 4.73669 2.88611C4.59082 2.88611 4.47241 3.00452 4.47241 3.15051V3.79236H3.29651C3.15063 3.79236 3.03223 3.91077 3.03223 4.05676C3.03223 4.20276 3.15063 4.32117 3.29651 4.32117H3.66089C3.71912 4.87939 3.95984 5.38391 4.3219 5.77466C4.02173 5.95435 3.67114 6.05811 3.29651 6.05811C3.15063 6.05811 3.03223 6.17639 3.03223 6.32239C3.03223 6.46838 3.15063 6.58679 3.29651 6.58679C3.83142 6.58679 4.32764 6.41956 4.73669 6.13513C5.14587 6.41956 5.64209 6.58679 6.177 6.58679C6.32288 6.58679 6.44128 6.46838 6.44128 6.32239C6.44128 6.17639 6.32288 6.05811 6.177 6.05811C5.80237 6.05811 5.45178 5.95459 5.15161 5.77466C5.51367 5.38391 5.75439 4.87939 5.81262 4.32117H6.177ZM4.73669 5.44434C4.44751 5.14416 4.2511 4.75439 4.1936 4.32117H5.27991C5.22241 4.75439 5.026 5.14416 4.73669 5.44434Z" fill="#321463"/>
</g>
<defs>
<clipPath id="clip0_380_4072">
<rect width="16" height="16" fill="white"/>
</clipPath>
</defs>
</svg>
