<svg width="16" height="16" viewBox="0 0 16 16" fill="none" xmlns="http://www.w3.org/2000/svg">
<path d="M14.3958 3.55103L10.9296 0.134888C10.8418 0.0484619 10.7236 0 10.6005 0H2.84375C2.06836 0 1.4375 0.630859 1.4375 1.40625V14.5938C1.4375 15.3691 2.06836 16 2.84375 16H13.1293C13.9047 16 14.5355 15.3691 14.5355 14.5938V3.88489C14.5354 3.7594 14.4851 3.63916 14.3958 3.55103ZM11.0692 1.58887L12.9233 3.41614H11.0692V1.58887ZM2.84375 0.9375H10.1317V3.88489C10.1317 4.1438 10.3417 4.35364 10.6005 4.35364H13.598V12.1473H2.375V1.40625C2.375 1.14783 2.58533 0.9375 2.84375 0.9375ZM13.1292 15.0625H2.84375C2.58533 15.0625 2.375 14.8522 2.375 14.5938V13.0848H13.598V14.5938C13.5979 14.8522 13.3877 15.0625 13.1292 15.0625Z" fill="#321463"/>
<path d="M5.76868 10.7781C5.87366 10.8315 5.98889 10.8578 6.10352 10.8578C6.24597 10.8578 6.38757 10.8171 6.50769 10.7374L10.2581 8.55004C10.2717 8.5421 10.2849 8.53344 10.2977 8.52416C10.4707 8.3983 10.5699 8.20714 10.5698 7.99987C10.5698 7.79271 10.4706 7.60167 10.2976 7.47582C10.2849 7.46654 10.2716 7.45787 10.2581 7.44994L6.50769 5.26256C6.29089 5.11864 6.00415 5.10204 5.76855 5.22191C5.5426 5.33702 5.40234 5.55993 5.40234 5.80382V10.1962C5.40234 10.4401 5.54272 10.6631 5.76868 10.7781ZM6.33984 6.24999L9.34033 7.99999L6.33984 9.75011V6.24999Z" fill="#321463"/>
</svg>
