<svg width="40" height="41" viewBox="0 0 40 41" fill="none" xmlns="http://www.w3.org/2000/svg">
<rect width="40" height="40.1055" rx="20" fill="#E78E34"/>
<path d="M24.375 17.5H16.875V15.4437C16.875 14.663 17.1851 13.9143 17.7372 13.3622C18.2893 12.8101 19.038 12.5 19.8187 12.5H20.1813C20.962 12.5 21.7107 12.8101 22.2628 13.3622C22.8149 13.9143 23.125 14.663 23.125 15.4437C23.125 15.6095 23.1908 15.7685 23.3081 15.8857C23.4253 16.0029 23.5842 16.0687 23.75 16.0687C23.9158 16.0687 24.0747 16.0029 24.1919 15.8857C24.3092 15.7685 24.375 15.6095 24.375 15.4437C24.3733 14.332 23.931 13.2663 23.1449 12.4801C22.3587 11.694 21.293 11.2517 20.1813 11.25H19.8187C18.707 11.2517 17.6413 11.694 16.8551 12.4801C16.069 13.2663 15.6267 14.332 15.625 15.4437V17.5C15.1277 17.5 14.6508 17.6975 14.2992 18.0492C13.9475 18.4008 13.75 18.8777 13.75 19.375V25.1875C13.7517 26.1318 14.1275 27.037 14.7953 27.7047C15.463 28.3725 16.3682 28.7483 17.3125 28.75H22.6875C23.6318 28.7483 24.537 28.3725 25.2047 27.7047C25.8725 27.037 26.2483 26.1318 26.25 25.1875V19.375C26.25 18.8777 26.0525 18.4008 25.7008 18.0492C25.3492 17.6975 24.8723 17.5 24.375 17.5ZM25 25.1875C25 25.8008 24.7564 26.389 24.3227 26.8227C23.889 27.2564 23.3008 27.5 22.6875 27.5H17.3125C16.6992 27.5 16.111 27.2564 15.6773 26.8227C15.2436 26.389 15 25.8008 15 25.1875V19.375C15 19.2092 15.0658 19.0503 15.1831 18.9331C15.3003 18.8158 15.4592 18.75 15.625 18.75H24.375C24.5408 18.75 24.6997 18.8158 24.8169 18.9331C24.9342 19.0503 25 19.2092 25 19.375V25.1875ZM20.625 22.95V25C20.625 25.1658 20.5592 25.3247 20.4419 25.4419C20.3247 25.5592 20.1658 25.625 20 25.625C19.8342 25.625 19.6753 25.5592 19.5581 25.4419C19.4408 25.3247 19.375 25.1658 19.375 25V22.95C19.1367 22.8124 18.9505 22.6 18.8452 22.3458C18.7398 22.0916 18.7214 21.8097 18.7926 21.5439C18.8638 21.2782 19.0207 21.0433 19.239 20.8758C19.4574 20.7083 19.7248 20.6175 20 20.6175C20.2752 20.6175 20.5426 20.7083 20.761 20.8758C20.9793 21.0433 21.1362 21.2782 21.2074 21.5439C21.2786 21.8097 21.2602 22.0916 21.1548 22.3458C21.0495 22.6 20.8633 22.8124 20.625 22.95Z" fill="white"/>
</svg>
