<svg width="40" height="41" viewBox="0 0 40 41" fill="none" xmlns="http://www.w3.org/2000/svg">
<rect width="40" height="40.1055" rx="20" fill="#508EF0"/>
<g clip-path="url(#clip0_259_15982)">
<path d="M29.8027 19.5482L28.147 17.3596L28.2004 14.6155C28.2073 14.2657 27.9807 13.9542 27.6457 13.8527L25.0189 13.0571L23.4515 10.804C23.2515 10.5163 22.8845 10.397 22.5534 10.5122L19.9609 11.4143L17.3683 10.5122C17.0375 10.3972 16.6704 10.5162 16.4703 10.804L14.903 13.0571L12.2762 13.8527C11.9412 13.9542 11.7146 14.2657 11.7215 14.6155L11.7749 17.3596L10.1192 19.5482C9.90815 19.827 9.90815 20.2121 10.1192 20.4909L11.7749 22.6794L11.7215 25.4236C11.7146 25.7733 11.9412 26.085 12.2762 26.1864L14.903 26.9821L16.4703 29.2351C16.6704 29.5227 17.0374 29.642 17.3683 29.5268L19.9609 28.6247L22.5536 29.5268C22.8844 29.6419 23.2515 29.5228 23.4515 29.2351L25.0189 26.9819L27.6457 26.1864C27.9807 26.0849 28.2073 25.7733 28.2004 25.4236L28.147 22.6794L29.8027 20.4909C30.0137 20.2121 30.0137 19.827 29.8027 19.5482ZM26.7377 21.9525C26.6319 22.0924 26.5762 22.2638 26.5796 22.4391L26.6268 24.8625L24.3062 25.5653C24.1379 25.6163 23.9917 25.7225 23.8913 25.8668L22.5073 27.8564L20.2178 27.0598C20.0514 27.0018 19.8705 27.0018 19.7041 27.0598L17.4146 27.8564L16.0306 25.8668C15.9302 25.7225 15.784 25.6163 15.6157 25.5653L13.2951 24.8625L13.3423 22.4391C13.3457 22.2638 13.29 22.0924 13.1842 21.9527L11.7218 20.0195L13.1842 18.0865C13.2901 17.9466 13.3458 17.7753 13.3423 17.5999L13.2951 15.1765L15.6157 14.4737C15.784 14.4227 15.9302 14.3165 16.0306 14.1722L17.4146 12.1826L19.7043 12.9793C19.8705 13.0371 20.0514 13.0371 20.2178 12.9793L22.5073 12.1826L23.8915 14.1722C23.9919 14.3164 24.138 14.4227 24.3062 14.4737L26.6268 15.1765L26.5796 17.5999C26.5762 17.7753 26.6319 17.9466 26.7377 18.0864L28.2001 20.0195L26.7377 21.9525ZM23.9816 17.155C24.2867 17.46 24.2867 17.9547 23.9816 18.2599L19.3573 22.884C19.0529 23.1885 18.5579 23.1895 18.2524 22.884L15.9403 20.572C15.6352 20.2669 15.6352 19.7722 15.9403 19.4671C16.2454 19.162 16.7401 19.162 17.0451 19.4671L18.8049 21.2268L22.8767 17.155C23.1818 16.8498 23.6765 16.8498 23.9816 17.155Z" fill="white"/>
</g>
<defs>
<clipPath id="clip0_259_15982">
<rect width="20" height="20" fill="white" transform="translate(10 10)"/>
</clipPath>
</defs>
</svg>
