<svg width="40" height="41" viewBox="0 0 40 41" fill="none" xmlns="http://www.w3.org/2000/svg">
<rect width="40" height="40.1055" rx="20" fill="#445B95"/>
<g clipPath="url(#clip0_259_15989)">
<path d="M26.1875 16.1187C26.0616 14.8656 25.4731 13.7044 24.537 12.862C23.6009 12.0195 22.3844 11.5561 21.125 11.5624H18.875C17.6205 11.5631 16.4109 12.0296 15.4807 12.8714C14.5505 13.7132 13.9661 14.8704 13.8406 16.1187C13.2002 16.2426 12.6227 16.5853 12.2071 17.0882C11.7915 17.591 11.5637 18.2226 11.5625 18.8749V25.6249C11.5625 26.3709 11.8588 27.0862 12.3863 27.6137C12.9137 28.1411 13.6291 28.4374 14.375 28.4374H25.625C26.3709 28.4374 27.0863 28.1411 27.6137 27.6137C28.1412 27.0862 28.4375 26.3709 28.4375 25.6249V18.8749C28.4376 18.2266 28.2137 17.5981 27.8037 17.0958C27.3937 16.5935 26.8228 16.2484 26.1875 16.1187ZM18.875 12.6874H21.125C22.071 12.6885 22.9851 13.0302 23.6998 13.65C24.4146 14.2697 24.8824 15.1261 25.0175 16.0624H14.9825C15.1176 15.1261 15.5854 14.2697 16.3002 13.65C17.0149 13.0302 17.929 12.6885 18.875 12.6874ZM14.375 17.1874H25.625C26.0726 17.1874 26.5018 17.3652 26.8182 17.6817C27.1347 17.9982 27.3125 18.4274 27.3125 18.8749V20.5624H26.1875V19.9999C26.1875 19.7016 26.069 19.4154 25.858 19.2044C25.647 18.9935 25.3609 18.8749 25.0625 18.8749H23.9375C23.6391 18.8749 23.353 18.9935 23.142 19.2044C22.931 19.4154 22.8125 19.7016 22.8125 19.9999V20.5624H17.1875V19.9999C17.1875 19.7016 17.069 19.4154 16.858 19.2044C16.647 18.9935 16.3609 18.8749 16.0625 18.8749H14.9375C14.6391 18.8749 14.353 18.9935 14.142 19.2044C13.931 19.4154 13.8125 19.7016 13.8125 19.9999V20.5624H12.6875V18.8749C12.6875 18.4274 12.8653 17.9982 13.1818 17.6817C13.4982 17.3652 13.9274 17.1874 14.375 17.1874ZM25.0625 22.2499H23.9375V19.9999H25.0625V21.1249V22.2499ZM16.0625 22.2499H14.9375V19.9999H16.0625V21.1249V22.2499ZM25.625 27.3124H14.375C13.9274 27.3124 13.4982 27.1346 13.1818 26.8182C12.8653 26.5017 12.6875 26.0725 12.6875 25.6249V21.6874H13.8125V22.2499C13.8125 22.5483 13.931 22.8345 14.142 23.0454C14.353 23.2564 14.6391 23.3749 14.9375 23.3749H16.0625C16.3609 23.3749 16.647 23.2564 16.858 23.0454C17.069 22.8345 17.1875 22.5483 17.1875 22.2499V21.6874H22.8125V22.2499C22.8125 22.5483 22.931 22.8345 23.142 23.0454C23.353 23.2564 23.6391 23.3749 23.9375 23.3749H25.0625C25.3609 23.3749 25.647 23.2564 25.858 23.0454C26.069 22.8345 26.1875 22.5483 26.1875 22.2499V21.6874H27.3125V25.6249C27.3125 26.0725 27.1347 26.5017 26.8182 26.8182C26.5018 27.1346 26.0726 27.3124 25.625 27.3124Z" fill="white"/>
</g>
<defs>
<clipPath id="clip0_259_15989">
<rect width="18" height="18" fill="white" transform="translate(11 11)"/>
</clipPath>
</defs>
</svg>
