<svg width="40" height="41" viewBox="0 0 40 41" fill="none" xmlns="http://www.w3.org/2000/svg">
<rect width="40" height="40.1055" rx="20" fill="#7545F0"/>
<g clipPath="url(#clip0_259_15996)">
<path d="M26.8708 18.17L17.4208 12.3294C16.7371 11.9074 15.9105 11.8899 15.2096 12.2825C14.5087 12.6751 14.0902 13.3901 14.0902 14.1951V25.8229C14.0902 27.0401 15.0684 28.0356 16.2706 28.0422C16.2738 28.0422 16.2771 28.0422 16.2803 28.0422C16.656 28.0422 17.0475 27.9241 17.4132 27.7004C17.7073 27.5204 17.8003 27.1355 17.6208 26.8406C17.4414 26.5456 17.0574 26.4524 16.7633 26.6324C16.5923 26.737 16.4252 26.7911 16.2773 26.7911C15.8237 26.7886 15.338 26.399 15.338 25.8229V14.1951C15.338 13.8498 15.5175 13.5431 15.8182 13.3747C16.1188 13.2063 16.4733 13.2138 16.7662 13.3946L26.2163 19.2352C26.5003 19.4105 26.6629 19.7029 26.6622 20.0373C26.6615 20.3717 26.4978 20.6634 26.2122 20.8382L19.3798 25.0326C19.0859 25.213 18.9935 25.5981 19.1734 25.8927C19.3533 26.1874 19.7374 26.28 20.0313 26.0996L26.8629 21.9057C27.517 21.5056 27.9085 20.8081 27.91 20.0398C27.9116 19.2716 27.523 18.5725 26.8708 18.17Z" fill="white"/>
</g>
<defs>
<clipPath id="clip0_259_15996">
<rect width="16" height="16.0422" fill="white" transform="translate(13 12)"/>
</clipPath>
</defs>
</svg>
