<svg width="40" height="41" viewBox="0 0 40 41" fill="none" xmlns="http://www.w3.org/2000/svg">
<rect width="40" height="40.1055" rx="20" fill="black"/>
<g clip-path="url(#clip0_259_15849)">
<rect width="20" height="20" transform="translate(10 10)" fill="black"/>
<path d="M19.9847 10.2085C18.0353 10.2085 16.1672 10.7832 14.5741 11.8432L14.7125 11.4091C14.8378 11.0122 14.6197 10.5885 14.2234 10.4622C13.8284 10.3363 13.4034 10.5554 13.2769 10.9513L12.3516 13.8522C12.275 14.0944 12.3241 14.3582 12.4847 14.5554C12.6278 14.7329 12.8434 14.8341 13.0691 14.8341C13.0947 14.8341 13.12 14.8329 13.145 14.8307L16.1747 14.5238C16.5888 14.4819 16.8906 14.1129 16.8484 13.6982C16.8066 13.2841 16.4463 12.9891 16.0228 13.0247L15.4231 13.0854C16.7675 12.1963 18.3422 11.7147 19.9844 11.7147C24.5528 11.7147 28.2697 15.4316 28.2697 19.9994C28.2697 24.5682 24.5528 28.2847 19.9844 28.2847C19.5681 28.2847 19.2313 28.6216 19.2313 29.0379C19.2313 29.4544 19.5681 29.7913 19.9844 29.7913C25.3835 29.7913 29.7763 25.3988 29.7763 19.9994C29.7766 14.601 25.3838 10.2085 19.9847 10.2085Z" fill="white"/>
<path d="M17.0559 27.7522C16.6428 27.5963 16.2375 27.4035 15.8509 27.1813C15.4906 26.9725 15.0291 27.0978 14.8228 27.4582C14.6147 27.8185 14.7388 28.2791 15.0994 28.4863C15.5547 28.7491 16.0344 28.9763 16.5234 29.1619C16.6106 29.1951 16.7006 29.2104 16.7897 29.2104C17.0934 29.2104 17.3806 29.0251 17.4947 28.7235C17.6416 28.3341 17.445 27.8994 17.0559 27.7522Z" fill="white"/>
<path d="M12.9891 24.4392C12.7666 24.0873 12.3016 23.9836 11.9491 24.2067C11.5981 24.4295 11.4941 24.8954 11.7169 25.2467C11.9956 25.6857 12.3147 26.1086 12.665 26.5032C12.8141 26.6711 13.0209 26.7564 13.2281 26.7564C13.4062 26.7564 13.585 26.6936 13.7281 26.5664C14.0397 26.2895 14.0675 25.8136 13.7916 25.5026C13.4947 25.1676 13.2247 24.8104 12.9891 24.4392Z" fill="white"/>
<path d="M11.9428 21.9975C11.8359 21.5681 11.7631 21.1263 11.7278 20.6834C11.6941 20.2694 11.3278 19.9638 10.9159 19.9934C10.5019 20.0272 10.1928 20.3906 10.2259 20.8053C10.2684 21.3281 10.3541 21.8522 10.4803 22.3609C10.5656 22.7034 10.8731 22.9322 11.2109 22.9322C11.2709 22.9322 11.3322 22.925 11.3931 22.9103C11.7969 22.8097 12.0428 22.4016 11.9428 21.9975Z" fill="white"/>
<path d="M11.0238 18.5869C11.0841 18.6016 11.1438 18.6085 11.2031 18.6085C11.5422 18.6085 11.8506 18.3778 11.9344 18.0338C12.0394 17.6032 12.18 17.1775 12.3534 16.7678C12.5153 16.3847 12.3369 15.9428 11.9534 15.7806C11.5703 15.6188 11.1284 15.7981 10.9666 16.1806C10.7622 16.6647 10.5953 17.1678 10.4709 17.6763C10.3722 18.08 10.62 18.4885 11.0238 18.5869Z" fill="white"/>
<path d="M23.0562 16.9235L23.0531 16.9079C23.0125 16.5454 22.9156 16.0642 22.5469 15.5673C21.9281 14.7485 20.9969 14.2798 19.9937 14.2798H19.9844C18.9844 14.2829 18.0625 14.7548 17.4531 15.5735C17.0812 16.0704 16.9875 16.5735 16.95 16.9079C16.7969 18.261 17.5531 19.6548 18.3687 20.436C18.8344 20.8798 19.4187 21.1017 20 21.1017C20.5844 21.1017 21.1687 20.8798 21.6344 20.436C22.5937 19.5173 23.1656 18.1079 23.0562 16.9235ZM20.5562 19.3048C20.2281 19.6173 19.775 19.6173 19.45 19.3048C18.9125 18.7923 18.4156 17.8642 18.5031 17.086C18.5312 16.8267 18.5906 16.6642 18.7062 16.5048C19.0187 16.086 19.4875 15.8454 19.9906 15.8423H19.9937C20.5031 15.8423 20.9781 16.086 21.2969 16.5048C21.4125 16.661 21.4687 16.8204 21.5 17.0767C21.5625 17.786 21.1656 18.7204 20.5562 19.3048Z" fill="white"/>
<path d="M23.9825 25.7205C24.4881 25.7205 24.8706 25.2451 24.7444 24.7555C24.5265 23.9101 24.0244 23.1814 23.3122 22.7142C22.7278 22.3298 22.0466 22.1267 21.3466 22.1267H18.6528C17.9528 22.1267 17.2716 22.3298 16.6872 22.7142C15.9753 23.1814 15.4728 23.9098 15.255 24.7555C15.1288 25.2451 15.5113 25.7205 16.0169 25.7205C16.3803 25.7205 16.6809 25.4661 16.7781 25.1158C16.9056 24.657 17.1756 24.2626 17.5431 24.0205C17.8744 23.8048 18.2587 23.6892 18.6525 23.6892H21.3462C21.74 23.6892 22.1244 23.8048 22.4556 24.0205C22.8234 24.2626 23.0934 24.657 23.2206 25.1158C23.3187 25.4661 23.619 25.7205 23.9825 25.7205Z" fill="white"/>
</g>
<defs>
<clipPath id="clip0_259_15849">
<rect width="20" height="20" fill="white" transform="translate(10 10)"/>
</clipPath>
</defs>
</svg>
