<svg width="142" height="21" viewBox="0 0 142 21" fill="none" xmlns="http://www.w3.org/2000/svg">
<path d="M141.427 16.9607C141.926 16.725 142.14 16.129 141.904 15.6296L138.063 7.49042C137.827 6.99096 137.232 6.77715 136.732 7.01286C136.233 7.24857 136.019 7.84454 136.255 8.344L139.669 15.5788L132.434 18.9931C131.935 19.2288 131.721 19.8248 131.956 20.3243C132.192 20.8237 132.788 21.0375 133.288 20.8018L141.427 16.9607ZM1.32812 17.001C1.80596 16.835 2.28195 16.6705 2.75609 16.5074L2.1056 14.6161C1.62951 14.7799 1.15162 14.9451 0.671885 15.1117L1.32812 17.001ZM5.57916 15.5463C6.53303 15.2249 7.47948 14.9096 8.41877 14.6004L7.79328 12.7007C6.84953 13.0114 5.89874 13.3282 4.94066 13.6509L5.57916 15.5463ZM11.2438 13.6815C12.2045 13.373 13.1578 13.0709 14.1039 12.7754L13.5076 10.8664C12.5562 11.1635 11.5979 11.4672 10.6322 11.7773L11.2438 13.6815ZM16.9449 11.901C17.9078 11.6091 18.8634 11.3242 19.8119 11.0462L19.2494 9.12692C18.2948 9.4067 17.3334 9.69337 16.3648 9.98695L16.9449 11.901ZM22.6787 10.221C23.6405 9.94937 24.5951 9.68504 25.5429 9.42801L25.0195 7.49772C24.0647 7.75663 23.1034 8.02283 22.1351 8.29632L22.6787 10.221ZM28.4361 8.66077C29.4044 8.4099 30.3659 8.16686 31.3208 7.93165L30.8424 5.98969C29.8796 6.22687 28.9104 6.47186 27.9345 6.72469L28.4361 8.66077ZM34.2165 7.23779C35.1938 7.0103 36.1644 6.79121 37.129 6.58051L36.7021 4.62659C35.7285 4.83927 34.749 5.06036 33.7631 5.28987L34.2165 7.23779ZM40.038 5.96677C41.0173 5.7676 41.9906 5.57728 42.9583 5.3958L42.5896 3.43007C41.6117 3.61346 40.6285 3.80574 39.6394 4.0069L40.038 5.96677ZM45.8936 4.86957C46.8771 4.7015 47.8553 4.54276 48.8285 4.39332L48.525 2.41649C47.5404 2.56766 46.5512 2.72821 45.5568 2.89815L45.8936 4.86957ZM51.767 3.96847C52.757 3.83431 53.7425 3.70995 54.7239 3.59537L54.492 1.60887C53.4982 1.72489 52.5005 1.85079 51.4984 1.98658L51.767 3.96847ZM57.6808 3.27863C58.6704 3.18223 59.6564 3.09592 60.6394 3.01968L60.4848 1.02567C59.4885 1.10294 58.4894 1.19039 57.4869 1.28805L57.6808 3.27863ZM63.6048 2.81975C64.5972 2.76296 65.5872 2.71653 66.5752 2.68044L66.5023 0.681774C65.5003 0.718364 64.4966 0.765442 63.4905 0.823017L63.6048 2.81975ZM69.5452 2.60305C70.5365 2.58762 71.5265 2.58265 72.5158 2.58814L72.5269 0.588171C71.5234 0.582606 70.5194 0.587641 69.5141 0.603288L69.5452 2.60305ZM75.4873 2.63607C76.4766 2.66249 77.466 2.69937 78.4561 2.7467L78.5516 0.748977C77.5475 0.700986 76.5441 0.663582 75.5407 0.636779L75.4873 2.63607ZM81.4221 2.91953C82.4087 2.98732 83.3966 3.06544 84.3864 3.15386L84.5644 1.1618C83.5611 1.07216 82.5596 0.992971 81.5592 0.924237L81.4221 2.91953ZM87.3445 3.44818C88.325 3.55562 89.3079 3.67309 90.2938 3.80059L90.5503 1.8171C89.5517 1.68796 88.5558 1.56895 87.5623 1.46008L87.3445 3.44818ZM93.2393 4.20988C94.2167 4.35503 95.1977 4.50991 96.1827 4.6745L96.5123 2.70185C95.5156 2.5353 94.5227 2.37853 93.5331 2.23157L93.2393 4.20988ZM99.1085 5.18964C100.077 5.36874 101.05 5.55708 102.028 5.75463L102.424 3.79424C101.435 3.59455 100.452 3.40413 99.4722 3.22299L99.1085 5.18964ZM104.945 6.36822C105.908 6.57856 106.876 6.79766 107.85 7.02551L108.306 5.07812C107.323 4.84807 106.345 4.62678 105.372 4.41429L104.945 6.36822ZM110.74 7.72321C111.697 7.96148 112.661 8.20801 113.631 8.46281L114.139 6.52847C113.161 6.2715 112.189 6.02279 111.222 5.78236L110.74 7.72321ZM116.51 9.23843C117.458 9.49996 118.412 9.76918 119.372 10.0461L119.926 8.12435C118.959 7.84538 117.997 7.57409 117.042 7.31048L116.51 9.23843ZM122.241 10.8901C123.184 11.1728 124.133 11.4628 125.089 11.7599L125.683 9.85006C124.721 9.55099 123.765 9.2591 122.816 8.97438L122.241 10.8901ZM127.931 12.6578C128.874 12.9606 129.824 13.2702 130.782 13.5866L131.409 11.6876C130.447 11.3695 129.491 11.0581 128.542 10.7535L127.931 12.6578ZM133.597 14.5296C134.534 14.8475 135.478 15.1718 136.429 15.5024L137.086 13.6132C136.13 13.2811 135.182 12.9552 134.24 12.6357L133.597 14.5296ZM139.241 16.4901C139.713 16.6578 140.187 16.8269 140.662 16.9976L141.338 15.1151C140.86 14.9437 140.384 14.7738 139.91 14.6055L139.241 16.4901Z" fill="#C5165D"/>
</svg>
