<svg width="20" height="20" viewBox="0 0 20 20" fill="none" xmlns="http://www.w3.org/2000/svg">
<path d="M0 17.6377V7.85162C0 4.82521 2.46266 2.36255 5.48907 2.36255H14.5096C17.5367 2.36255 20 4.82521 20 7.85162V9.53955C20 12.566 17.5373 15.0286 14.5109 15.0286H5.61632L0 17.6377ZM5.48907 3.5863C3.13718 3.5863 1.22375 5.49973 1.22375 7.85162V15.7196L5.34665 13.8042H14.5109C16.8628 13.8042 18.7762 11.8908 18.7762 9.53889V7.85096C18.7762 5.49907 16.8622 3.58564 14.5096 3.58564H5.48907V3.5863ZM5.89259 7.75865C6.53546 7.75865 7.05634 8.27954 7.05634 8.9224C7.05634 9.56527 6.53546 10.0862 5.89259 10.0862C5.24973 10.0862 4.72884 9.56527 4.72884 8.9224C4.72884 8.27954 5.24973 7.75865 5.89259 7.75865ZM14.1067 7.75865C14.7496 7.75865 15.2705 8.27954 15.2705 8.9224C15.2705 9.56527 14.7496 10.0862 14.1067 10.0862C13.4639 10.0862 12.943 9.56527 12.943 8.9224C12.943 8.27954 13.4639 7.75865 14.1067 7.75865ZM9.99901 7.75865C10.6419 7.75865 11.1628 8.27954 11.1628 8.9224C11.1628 9.56527 10.6419 10.0862 9.99901 10.0862C9.35615 10.0862 8.83526 9.56527 8.83526 8.9224C8.83526 8.27954 9.35615 7.75865 9.99901 7.75865Z" fill="#6A7A99"/>
</svg>
