<svg width="20" height="20" viewBox="0 0 20 20" fill="none" xmlns="http://www.w3.org/2000/svg">
<path d="M15.8984 1.79688H4.10156C1.8399 1.79688 0 3.63678 0 5.89844V12.2333C0 14.0379 1.18484 15.6097 2.90176 16.1128L4.88266 18.0939C4.99268 18.2037 5.1416 18.2655 5.29709 18.2655C5.45242 18.2655 5.6015 18.2037 5.71136 18.0939L7.52853 16.2766H15.8984C18.1601 16.2766 20 14.4366 20 12.175V5.89844C20 3.63678 18.1601 1.79688 15.8984 1.79688ZM18.8281 12.175C18.8281 13.7904 17.5139 15.1047 15.8984 15.1047H7.28592C7.13058 15.1047 6.98151 15.1665 6.87164 15.2763L5.29709 16.8509L3.62015 15.174C3.54492 15.0987 3.45062 15.0453 3.34732 15.0197C2.0665 14.7009 1.17188 13.5551 1.17188 12.2333V5.89844C1.17188 4.28299 2.48611 2.96875 4.10156 2.96875H15.8984C17.5139 2.96875 18.8281 4.28299 18.8281 5.89844V12.175Z" fill="#6A7A99"/>
<path d="M13.7204 7.41504H6.2796C5.95596 7.41504 5.69366 7.67749 5.69366 8.00098C5.69366 8.32462 5.95596 8.58691 6.2796 8.58691H13.7204C14.044 8.58691 14.3063 8.32462 14.3063 8.00098C14.3063 7.67749 14.044 7.41504 13.7204 7.41504Z" fill="#6A7A99"/>
<path d="M13.7204 9.48633H6.2796C5.95596 9.48633 5.69366 9.74863 5.69366 10.0723C5.69366 10.3959 5.95596 10.6582 6.2796 10.6582H13.7204C14.044 10.6582 14.3063 10.3959 14.3063 10.0723C14.3063 9.74863 14.044 9.48633 13.7204 9.48633Z" fill="#6A7A99"/>
</svg>
