<svg width="20" height="20" viewBox="0 0 20 20" fill="none" xmlns="http://www.w3.org/2000/svg"> 
<path d="M9.99998 18.8889C8.24192 18.8889 6.52335 18.3675 5.06158 17.3908C3.59981 16.4141 2.46049 15.0258 1.78771 13.4016C1.11494 11.7774 0.938906 9.99012 1.28189 8.26584C1.62487 6.54157 2.47145 4.95772 3.71458 3.71458C4.95772 2.47145 6.54157 1.62487 8.26584 1.28189C9.99012 0.938906 11.7774 1.11494 13.4016 1.78771C15.0258 2.46049 16.4141 3.59981 17.3908 5.06158C18.3675 6.52335 18.8889 8.24192 18.8889 9.99998C18.8889 12.3575 17.9524 14.6184 16.2854 16.2854C14.6184 17.9524 12.3575 18.8889 9.99998 18.8889ZM9.99998 2.29442C8.47597 2.29442 6.98617 2.74634 5.719 3.59304C4.45183 4.43974 3.46419 5.64318 2.88097 7.05119C2.29776 8.4592 2.14516 10.0085 2.44248 11.5033C2.7398 12.998 3.47369 14.371 4.55133 15.4486C5.62897 16.5263 7.00197 17.2602 8.4967 17.5575C9.99143 17.8548 11.5408 17.7022 12.9488 17.119C14.3568 16.5358 15.5602 15.5481 16.4069 14.281C17.2536 13.0138 17.7055 11.524 17.7055 9.99998C17.7041 7.95679 16.8918 5.99771 15.447 4.55295C14.0023 3.1082 12.0432 2.29589 9.99998 2.29442Z" fill="#6A7A99"/>
<path d="M10 15.0611C8.85129 15.0603 7.73703 14.6688 6.84032 13.9508C5.94361 13.2329 5.3178 12.2312 5.06574 11.1105C4.81368 9.98983 4.95036 8.8167 5.45331 7.78396C5.95627 6.75122 6.79559 5.92029 7.83333 5.42773L8.33333 6.49996C7.53557 6.87837 6.89033 7.517 6.50372 8.31082C6.11711 9.10464 6.01214 10.0064 6.20608 10.8678C6.40002 11.7292 6.88133 12.499 7.57084 13.0505C8.26036 13.602 9.11704 13.9025 10 13.9025C10.883 13.9025 11.7396 13.602 12.4292 13.0505C13.1187 12.499 13.6 11.7292 13.7939 10.8678C13.9879 10.0064 13.8829 9.10464 13.4963 8.31082C13.1097 7.517 12.4644 6.87837 11.6667 6.49996L12.1778 5.42773C13.2164 5.9207 14.0562 6.75258 14.559 7.78646C15.0618 8.82034 15.1977 9.9946 14.9442 11.116C14.6907 12.2373 14.0629 13.239 13.1643 13.956C12.2656 14.6731 11.1497 15.0628 10 15.0611Z" fill="#6A7A99"/>
<path d="M9.40558 4.25562H10.5889V8.08339H9.40558V4.25562Z" fill="#6A7A99"/>
</svg>
