<svg width="20" height="20" viewBox="0 0 20 20" fill="none" xmlns="http://www.w3.org/2000/svg"> 
<g clipPath="url(#clip0_445_1442)">
<path d="M10.175 19.9999H9.81878C9.33724 19.9989 8.87213 19.8247 8.50839 19.5092C8.14465 19.1936 7.90653 18.7578 7.83753 18.2812L7.58753 16.5187C7.57908 16.352 7.63326 16.1882 7.73943 16.0594C7.84559 15.9307 7.99606 15.8463 8.16128 15.8228C8.32651 15.7993 8.49455 15.8384 8.6324 15.9325C8.77024 16.0266 8.86793 16.1688 8.90628 16.3312L9.15628 18.0937C9.17887 18.2533 9.25835 18.3993 9.38008 18.505C9.50181 18.6106 9.6576 18.6688 9.81878 18.6687H10.175C10.3317 18.67 10.4838 18.6163 10.6048 18.5169C10.7259 18.4175 10.8083 18.2788 10.8375 18.1249L11.0875 16.3624C11.1062 16.2332 11.1623 16.1122 11.249 16.0145C11.3356 15.9167 11.4489 15.8465 11.575 15.8124C12.0667 15.6796 12.5393 15.4843 12.9813 15.2312C13.0942 15.1666 13.2235 15.1363 13.3534 15.144C13.4833 15.1518 13.6081 15.1973 13.7125 15.2749L15.1375 16.3437C15.2659 16.4388 15.4241 16.4847 15.5835 16.4733C15.7428 16.4618 15.8928 16.3937 16.0063 16.2812L16.2563 16.0312C16.3704 15.9174 16.4396 15.7661 16.451 15.6054C16.4625 15.4446 16.4156 15.2851 16.3188 15.1562L15.25 13.7124C15.1716 13.6084 15.1257 13.4835 15.1179 13.3534C15.1101 13.2233 15.1409 13.0939 15.2063 12.9812C15.4593 12.5392 15.6546 12.0666 15.7875 11.5749C15.8216 11.4489 15.8918 11.3355 15.9896 11.2489C16.0873 11.1622 16.2083 11.1061 16.3375 11.0874L18.1 10.8374C18.2596 10.8148 18.4057 10.7354 18.5113 10.6136C18.617 10.4919 18.6751 10.3361 18.675 10.1749V9.8187C18.6746 9.66225 18.6193 9.51091 18.5188 9.39101C18.4183 9.2711 18.279 9.19022 18.125 9.16245L16.3625 8.91245C16.2333 8.89377 16.1123 8.83766 16.0146 8.75102C15.9168 8.66439 15.8466 8.55103 15.8125 8.42495C15.6796 7.9333 15.4843 7.4607 15.2313 7.0187C15.1659 6.90601 15.1351 6.77654 15.1429 6.64647C15.1507 6.51641 15.1966 6.39152 15.275 6.28745L16.3438 4.86245C16.4349 4.73047 16.4756 4.57012 16.4584 4.41064C16.4412 4.25117 16.3673 4.10319 16.25 3.9937L16 3.74995C15.8866 3.63747 15.7366 3.56934 15.5772 3.55787C15.4179 3.54641 15.2597 3.59237 15.1313 3.68745C14.989 3.78097 14.8164 3.81669 14.6486 3.7873C14.4809 3.75792 14.3307 3.66566 14.2286 3.52933C14.1266 3.39301 14.0804 3.22288 14.0995 3.05367C14.1185 2.88445 14.2014 2.72888 14.3313 2.6187C14.7175 2.33302 15.1931 2.1949 15.6722 2.22929C16.1513 2.26367 16.6024 2.4683 16.9438 2.8062L17.1938 3.0562C17.5317 3.39762 17.7363 3.84865 17.7707 4.32777C17.8051 4.8069 17.667 5.28252 17.3813 5.6687L16.5688 6.74995C16.7116 7.0414 16.8348 7.34207 16.9375 7.64995L18.2813 7.8437C18.7579 7.9127 19.1937 8.15081 19.5093 8.51456C19.8248 8.8783 19.999 9.34341 20 9.82495V10.1812C19.999 10.6627 19.8248 11.1278 19.5093 11.4916C19.1937 11.8553 18.7579 12.0934 18.2813 12.1624L16.9375 12.3562C16.8349 12.6641 16.7117 12.9648 16.5688 13.2562L17.3813 14.3374C17.667 14.7236 17.8051 15.1992 17.7707 15.6784C17.7363 16.1575 17.5317 16.6085 17.1938 16.9499L16.9438 17.1999C16.6024 17.5378 16.1513 17.7425 15.6722 17.7769C15.1931 17.8112 14.7175 17.6731 14.3313 17.3874L13.25 16.5749C12.9585 16.7177 12.6579 16.8409 12.35 16.9437L12.1563 18.2874C12.0847 18.7623 11.8456 19.196 11.4823 19.51C11.119 19.8241 10.6553 19.9978 10.175 19.9999Z" fill="#6A7A99"/>
<path d="M4.46875 17.7812C4.20566 17.7824 3.94492 17.7317 3.70147 17.632C3.45801 17.5322 3.23663 17.3854 3.05 17.2L2.8 16.95C2.46211 16.6086 2.25748 16.1576 2.22309 15.6784C2.1887 15.1993 2.32683 14.7237 2.6125 14.3375L3.425 13.2562C3.28221 12.9648 3.15902 12.6641 3.05625 12.3563L1.7125 12.1625C1.23601 12.092 0.800791 11.8524 0.48637 11.4875C0.171949 11.1225 -0.000687314 10.6567 2.05663e-06 10.175V9.81875C0.00103273 9.33721 0.175227 8.8721 0.490777 8.50836C0.806327 8.14462 1.24218 7.9065 1.71875 7.8375L3.0625 7.64375C3.1652 7.33586 3.2884 7.03519 3.43125 6.74375L2.61875 5.66875C2.33308 5.28257 2.19495 4.80695 2.22934 4.32782C2.26373 3.8487 2.46836 3.39767 2.80625 3.05625L3.05625 2.80625C3.39768 2.46835 3.8487 2.26373 4.32782 2.22934C4.80695 2.19495 5.28257 2.33308 5.66875 2.61875L6.75 3.43125C7.04147 3.28846 7.34214 3.16527 7.65 3.0625L7.84375 1.71875C7.91275 1.24218 8.15087 0.806326 8.51461 0.490775C8.87835 0.175225 9.34346 0.00103068 9.825 0L10.1812 0C10.6624 0.00231919 11.1269 0.176968 11.4903 0.492285C11.8538 0.807603 12.0923 1.24272 12.1625 1.71875L12.4125 3.48125C12.4209 3.64792 12.3668 3.81173 12.2606 3.9405C12.1544 4.06927 12.004 4.15369 11.8387 4.17718C11.6735 4.20067 11.5055 4.16154 11.3676 4.06746C11.2298 3.97339 11.1321 3.83117 11.0937 3.66875L10.8375 1.875C10.8149 1.71541 10.7354 1.56935 10.6137 1.4637C10.492 1.35805 10.3362 1.29991 10.175 1.3H9.81875C9.65864 1.30141 9.50436 1.36022 9.38393 1.46574C9.26351 1.57125 9.18494 1.71647 9.1625 1.875L8.9125 3.6375C8.89383 3.76677 8.83771 3.88773 8.75108 3.98547C8.66444 4.08321 8.55109 4.15344 8.425 4.1875C7.93339 4.32053 7.46081 4.51586 7.01875 4.76875C6.90582 4.83339 6.77649 4.86368 6.6466 4.85591C6.51671 4.84814 6.39192 4.80264 6.2875 4.725L4.86875 3.6875C4.73986 3.59072 4.58034 3.54375 4.41957 3.55524C4.2588 3.56672 4.10758 3.63588 3.99375 3.75L3.74375 4C3.63128 4.11347 3.56314 4.26345 3.55168 4.4228C3.54021 4.58216 3.58618 4.74035 3.68125 4.86875L4.75 6.29375C4.82764 6.39817 4.87314 6.52296 4.88091 6.65285C4.88868 6.78274 4.85839 6.91207 4.79375 7.025C4.5408 7.46703 4.34546 7.93962 4.2125 8.43125C4.17844 8.55734 4.10821 8.6707 4.01047 8.75733C3.91273 8.84396 3.79177 8.90008 3.6625 8.91875L1.875 9.1625C1.71541 9.1851 1.56935 9.26457 1.4637 9.3863C1.35805 9.50803 1.29992 9.66382 1.3 9.825V10.1813C1.30141 10.3414 1.36022 10.4956 1.46574 10.6161C1.57125 10.7365 1.71647 10.8151 1.875 10.8375L3.6375 11.0875C3.76677 11.1062 3.88773 11.1623 3.98547 11.2489C4.08321 11.3356 4.15344 11.4489 4.1875 11.575C4.32046 12.0666 4.5158 12.5392 4.76875 12.9813C4.83339 13.0942 4.86368 13.2235 4.85591 13.3534C4.84814 13.4833 4.80264 13.6081 4.725 13.7125L3.6875 15.1312C3.59072 15.2601 3.54375 15.4197 3.55524 15.5804C3.56672 15.7412 3.63589 15.8924 3.75 16.0063L4 16.2563C4.11347 16.3687 4.26345 16.4369 4.42281 16.4483C4.58216 16.4598 4.74035 16.4138 4.86875 16.3188C4.93833 16.2597 5.01927 16.2155 5.10657 16.1889C5.19387 16.1623 5.28569 16.1539 5.37638 16.1641C5.46707 16.1743 5.55471 16.203 5.6339 16.2484C5.71309 16.2937 5.78215 16.3548 5.83684 16.4279C5.89153 16.5009 5.93069 16.5844 5.9519 16.6732C5.97311 16.762 5.97593 16.8541 5.96019 16.944C5.94444 17.0339 5.91046 17.1196 5.86034 17.1959C5.81022 17.2722 5.74502 17.3374 5.66875 17.3875C5.32199 17.6453 4.90085 17.7835 4.46875 17.7812Z" fill="#6A7A99"/>
<path d="M10 13.3312C9.34116 13.3312 8.69709 13.1358 8.14927 12.7698C7.60145 12.4037 7.17447 11.8835 6.92234 11.2748C6.67021 10.6661 6.60424 9.99626 6.73277 9.35006C6.86131 8.70386 7.17858 8.11029 7.64446 7.6444C8.11035 7.17852 8.70392 6.86125 9.35012 6.73271C9.99632 6.60417 10.6661 6.67014 11.2748 6.92228C11.8835 7.17441 12.4038 7.60139 12.7698 8.14921C13.1359 8.69703 13.3313 9.34109 13.3313 9.99995C13.3296 10.8829 12.9781 11.7293 12.3537 12.3537C11.7294 12.978 10.883 13.3296 10 13.3312ZM10 7.99995C9.60445 7.99995 9.21777 8.11725 8.88887 8.33701C8.55998 8.55678 8.30363 8.86913 8.15226 9.23459C8.00088 9.60004 7.96127 10.0022 8.03844 10.3901C8.11561 10.7781 8.3061 11.1345 8.5858 11.4142C8.86551 11.6939 9.22187 11.8844 9.60983 11.9615C9.9978 12.0387 10.3999 11.9991 10.7654 11.8477C11.1308 11.6963 11.4432 11.44 11.663 11.1111C11.8827 10.7822 12 10.3955 12 9.99995C12 9.46952 11.7893 8.96081 11.4142 8.58574C11.0392 8.21067 10.5304 7.99995 10 7.99995Z" fill="#6A7A99"/>
</g>
<defs>
<clipPath id="clip0_445_1442">
<rect width="20" height="20" fill="white"/>
</clipPath>
</defs>
</svg>
