<svg width="16" height="16" viewBox="0 0 16 16" fill="none" xmlns="http://www.w3.org/2000/svg">
<path d="M4.5376 1.3335C3.51288 1.3335 2.6665 2.17857 2.6665 3.20329V14.0002C2.66665 14.1169 2.69742 14.2315 2.75575 14.3326C2.81408 14.4336 2.89791 14.5176 2.99888 14.5762C3.09985 14.6347 3.2144 14.6657 3.3311 14.6661C3.4478 14.6664 3.56256 14.6362 3.6639 14.5783L7.99983 12.1004L12.3358 14.5783C12.4371 14.6362 12.5519 14.6664 12.6686 14.6661C12.7853 14.6657 12.8998 14.6347 13.0008 14.5762C13.1018 14.5176 13.1856 14.4336 13.2439 14.3326C13.3022 14.2315 13.333 14.1169 13.3332 14.0002V3.20329C13.3332 2.17857 12.4868 1.3335 11.4621 1.3335H4.5376Z" fill="#C5165D"/>
</svg>
