<svg width="246" height="209" viewBox="0 0 246 209" fill="none" xmlns="http://www.w3.org/2000/svg">
<path opacity="0.1" d="M244.027 144.099C237.331 110.335 198.103 83.3493 190.452 48.1644C176.546 3.39948 130.712 -3.67793 100.927 15.7634C53.7342 46.5685 104.079 54.213 11.5491 127.096C-11.2988 145.092 -4.01841 224.532 67.8596 206.301C106.541 196.49 118.3 195.113 135.699 193.497C179.555 189.426 255.266 200.778 244.027 144.099Z" fill="#367CFF"/>
<path d="M191.638 152.56L123.855 188.359L56.1746 152.56V98.4994H191.638V152.56Z" fill="white"/>
<path d="M123.855 188.909C123.765 188.909 123.677 188.887 123.598 188.845L55.9195 153.045C55.8315 152.999 55.7578 152.929 55.7063 152.844C55.6547 152.759 55.6273 152.661 55.627 152.562V98.5C55.627 98.3543 55.6848 98.2147 55.7878 98.1117C55.8907 98.0087 56.0304 97.9509 56.176 97.9509H191.637C191.783 97.9509 191.923 98.0087 192.026 98.1117C192.129 98.2147 192.186 98.3543 192.186 98.5V152.56C192.186 152.66 192.159 152.757 192.107 152.842C192.056 152.927 191.982 152.997 191.894 153.043L124.111 188.843C124.032 188.886 123.944 188.908 123.855 188.909ZM56.7234 152.23L123.855 187.739L191.088 152.229V99.049H56.7234V152.23Z" fill="#262626"/>
<path d="M191.635 86.8994L123.852 51.0999L154.311 36.4184L222.093 72.2184L191.635 86.8994Z" fill="white"/>
<path d="M191.635 87.4487C191.546 87.4487 191.457 87.427 191.378 87.3855L123.596 51.5855C123.506 51.538 123.431 51.4665 123.379 51.379C123.328 51.2914 123.301 51.1913 123.303 51.0898C123.305 50.9882 123.335 50.8891 123.39 50.8035C123.445 50.718 123.522 50.6493 123.614 50.6051L154.073 35.9236C154.15 35.886 154.235 35.8673 154.321 35.8689C154.407 35.8705 154.492 35.8924 154.568 35.9328L222.35 71.7328C222.44 71.7802 222.515 71.8517 222.567 71.9391C222.618 72.0266 222.645 72.1267 222.643 72.2283C222.641 72.3298 222.611 72.4289 222.556 72.5144C222.501 72.6 222.424 72.6686 222.332 72.7127L191.873 87.3942C191.799 87.4302 191.717 87.4488 191.635 87.4487ZM125.07 51.1216L191.646 86.2838L220.876 72.1953L154.3 37.034L125.07 51.1216Z" fill="#262626"/>
<path d="M56.1728 86.9005L123.956 51.101L93.4966 36.4195L25.7139 72.2194L56.1728 86.9005Z" fill="white"/>
<path d="M56.1727 87.4487C56.0901 87.4487 56.0086 87.4301 55.9342 87.3942L25.477 72.7127C25.3855 72.6686 25.3081 72.6 25.2533 72.5144C25.1985 72.4289 25.1685 72.3299 25.1666 72.2283C25.1647 72.1267 25.1911 72.0266 25.2427 71.9392C25.2943 71.8517 25.3692 71.7802 25.459 71.7328L93.2417 35.9328C93.3177 35.8924 93.4021 35.8705 93.4881 35.8689C93.5742 35.8673 93.6594 35.886 93.7368 35.9236L124.196 50.6051C124.287 50.6493 124.365 50.718 124.419 50.8035C124.474 50.8891 124.504 50.9882 124.506 51.0898C124.508 51.1913 124.482 51.2914 124.43 51.379C124.378 51.4665 124.304 51.538 124.214 51.5855L56.431 87.3855C56.3514 87.4274 56.2627 87.4491 56.1727 87.4487ZM26.9319 72.1962L56.1613 86.2847L122.737 51.1225L93.5079 37.034L26.9319 72.1962Z" fill="#262626"/>
<path d="M56.1729 86.8995L123.956 122.699L89.104 141.773L21.3213 105.974L56.1729 86.8995Z" fill="white"/>
<path d="M89.1045 142.323C89.0151 142.323 88.927 142.301 88.848 142.259L21.0653 106.459C20.9778 106.413 20.9044 106.343 20.853 106.259C20.8017 106.174 20.7742 106.077 20.7735 105.978C20.7727 105.879 20.7988 105.781 20.849 105.696C20.8991 105.611 20.9714 105.54 21.0582 105.493L55.9098 86.4185C55.9894 86.3748 56.0786 86.3516 56.1694 86.351C56.2602 86.3504 56.3497 86.3724 56.4299 86.415L124.213 122.215C124.3 122.261 124.373 122.331 124.425 122.415C124.476 122.5 124.504 122.597 124.504 122.696C124.505 122.795 124.479 122.892 124.429 122.978C124.379 123.063 124.306 123.134 124.22 123.181L89.3681 142.255C89.2872 142.3 89.1966 142.323 89.1045 142.323ZM22.4814 105.965L89.0997 141.15L122.797 122.708L56.1782 87.5233L22.4814 105.965Z" fill="#262626"/>
<path d="M191.637 86.8995L123.854 122.699L158.706 141.773L226.488 105.974L191.637 86.8995Z" fill="white"/>
<path d="M158.706 142.323C158.614 142.323 158.524 142.3 158.443 142.255L123.591 123.181C123.504 123.134 123.432 123.063 123.382 122.978C123.332 122.892 123.306 122.795 123.306 122.696C123.307 122.597 123.335 122.5 123.386 122.415C123.437 122.331 123.511 122.261 123.598 122.215L191.381 86.415C191.461 86.3724 191.551 86.3504 191.641 86.351C191.732 86.3516 191.821 86.3748 191.901 86.4185L226.753 105.493C226.839 105.54 226.912 105.611 226.962 105.696C227.012 105.781 227.038 105.879 227.037 105.978C227.037 106.077 227.009 106.174 226.958 106.259C226.906 106.343 226.833 106.413 226.746 106.459L158.963 142.259C158.884 142.301 158.796 142.323 158.706 142.323ZM125.015 122.708L158.712 141.15L225.33 105.965L191.633 87.5233L125.015 122.708Z" fill="#262626"/>
<path d="M123.957 51.1005L56.1746 86.9001L123.855 122.7L191.638 86.9001L123.957 51.1005Z" fill="#262626"/>
<path d="M124.403 122.7H123.304V188.36H124.403V122.7Z" fill="#262626"/>
<path d="M85.8764 83.6501C85.7855 83.6502 85.6968 83.6217 85.6229 83.5688C85.5279 83.5015 85.4635 83.3991 85.4438 83.2843C85.4242 83.1695 85.4511 83.0516 85.5184 82.9565C85.5996 82.8418 93.5385 71.3648 84.6759 60.9015C83.1073 59.04 81.1506 57.544 78.9428 56.5184C76.7351 55.4928 74.3298 54.9624 71.8955 54.9645H71.776C72.6177 57.8882 72.4674 60.4877 71.2757 62.482C70.7679 63.3832 70.0186 64.1246 69.1121 64.6229C68.2057 65.1211 67.1781 65.3564 66.1451 65.3021C65.2901 65.232 64.474 64.9142 63.7969 64.3874C63.1197 63.8606 62.6109 63.1477 62.3328 62.3362C61.358 59.7937 62.3767 57.3286 65.0615 55.7398C66.7623 54.8018 68.6521 54.2582 70.5913 54.1492C69.9605 52.4766 69.1402 50.8818 68.1464 49.3959C64.9464 44.5087 59.1143 41.1255 52.1449 40.1138C46.2386 39.2568 40.5782 40.2663 37.7226 42.6848C37.6336 42.7601 37.5184 42.7969 37.4023 42.7873C37.2862 42.7776 37.1787 42.7222 37.1035 42.6332C37.0282 42.5443 36.9914 42.4291 37.001 42.313C37.0107 42.1969 37.0661 42.0894 37.1551 42.0141C40.1939 39.4405 46.127 38.3524 52.271 39.2467C59.4894 40.2948 65.5433 43.819 68.8817 48.9167C69.964 50.5334 70.8444 52.2764 71.5033 54.107C74.1293 54.0439 76.736 54.5708 79.1313 55.6488C81.5267 56.7268 83.6497 58.3284 85.344 60.3358C94.6533 71.3257 86.3178 83.3466 86.2326 83.4669C86.192 83.5235 86.1385 83.5696 86.0766 83.6015C86.0147 83.6333 85.946 83.65 85.8764 83.6501ZM70.8764 54.9965C68.9963 55.0767 67.1601 55.5899 65.5108 56.4962C63.1933 57.8675 62.335 59.882 63.1551 62.0221C63.3773 62.6778 63.7858 63.2546 64.3306 63.6818C64.8755 64.109 65.5331 64.3681 66.2229 64.4275C67.0914 64.4664 67.9537 64.2629 68.7132 63.8398C69.4727 63.4168 70.0996 62.7907 70.5237 62.0318C71.6175 60.2 71.7176 57.7652 70.8751 54.9965H70.8764Z" fill="#292A2E"/>
<path d="M30.142 49.7677C29.3956 49.9919 28.591 49.9159 27.8998 49.5559C27.2085 49.1958 26.6851 48.5801 26.441 47.8399C26.1969 47.0997 26.2514 46.2934 26.5929 45.5928C26.9343 44.8922 27.5358 44.3525 28.2693 44.0887C29.0027 43.825 29.8101 43.8579 30.5196 44.1806C31.2291 44.5032 31.7846 45.0901 32.0679 45.8162C32.3512 46.5423 32.3398 47.3503 32.0362 48.0682C31.7326 48.7861 31.1608 49.3571 30.4425 49.6596C30.3444 49.7011 30.2441 49.7371 30.142 49.7677ZM28.6815 44.8866C28.6103 44.908 28.5404 44.9332 28.4719 44.9621C27.9665 45.1752 27.5643 45.5772 27.3509 46.0825C27.1375 46.5878 27.1298 47.1564 27.3294 47.6673C27.5291 48.1782 27.9203 48.591 28.4198 48.8177C28.9192 49.0444 29.4875 49.0671 30.0034 48.881C30.5194 48.695 30.9424 48.3148 31.1822 47.8215C31.4221 47.3283 31.4598 46.7608 31.2875 46.2401C31.1152 45.7194 30.7463 45.2865 30.2596 45.0337C29.7728 44.7809 29.2066 44.7281 28.6815 44.8866Z" fill="#292A2E"/>
<path d="M30.1365 42.884C29.4304 43.0948 28.6713 43.0372 28.0051 42.7221C27.3389 42.4071 26.8127 41.857 26.5276 41.1774C26.299 40.6326 26.2371 40.0323 26.3497 39.4523C26.4623 38.8724 26.7444 38.3388 27.1603 37.9192C27.5761 37.4995 28.1071 37.2126 28.686 37.0948C29.2649 36.9769 29.8658 37.0334 30.4126 37.257C30.9595 37.4807 31.4277 37.8615 31.7581 38.3512C32.0885 38.841 32.2663 39.4177 32.2689 40.0085C32.2715 40.5993 32.0988 41.1776 31.7728 41.6703C31.4467 42.163 30.9818 42.5479 30.437 42.7763C30.3388 42.8174 30.2385 42.8533 30.1365 42.884ZM28.6777 38.0024C28.6057 38.024 28.5349 38.0494 28.4656 38.0784C27.9503 38.2949 27.542 38.7071 27.3305 39.2244C27.1189 39.7418 27.1215 40.3219 27.3376 40.8374C27.4951 41.2132 27.7582 41.5352 28.095 41.7646C28.4317 41.994 28.8277 42.1209 29.2351 42.13C29.6425 42.139 30.0437 42.0298 30.3904 41.8156C30.737 41.6014 31.0141 41.2914 31.1882 40.923C31.3623 40.5546 31.426 40.1437 31.3715 39.7399C31.3169 39.3361 31.1466 38.9567 30.881 38.6477C30.6154 38.3387 30.266 38.1133 29.875 37.9987C29.484 37.8841 29.0681 37.8857 28.6777 38.0024Z" fill="#292A2E"/>
<path d="M29.2843 45.9905C31.4415 45.9905 33.1903 44.8225 33.1903 43.3817C33.1903 41.9409 31.4415 40.7729 29.2843 40.7729C27.1272 40.7729 25.3784 41.9409 25.3784 43.3817C25.3784 44.8225 27.1272 45.9905 29.2843 45.9905Z" fill="white"/>
<path d="M31.0131 46.1822C30.4531 46.3477 29.8721 46.4312 29.2882 46.43C26.8511 46.43 24.9395 45.0946 24.9395 43.3855C24.9395 41.6763 26.8454 40.3361 29.2816 40.3334C30.3437 40.3131 31.3887 40.6031 32.2883 41.168C32.6924 41.3786 33.031 41.6957 33.2675 42.0852C33.504 42.4746 33.6292 42.9214 33.6296 43.377C33.63 43.8326 33.5056 44.2796 33.2698 44.6695C33.0341 45.0593 32.696 45.3771 32.2923 45.5884C31.8976 45.8485 31.4666 46.0487 31.0131 46.1822ZM27.8232 41.4211C26.6495 41.7725 25.8175 42.5311 25.818 43.3833C25.818 44.5592 27.4068 45.5515 29.2882 45.5497C30.1769 45.5684 31.0518 45.3278 31.806 44.8574C32.0889 44.7271 32.3285 44.5184 32.4963 44.2561C32.6641 43.9938 32.7532 43.6888 32.7529 43.3774C32.7526 43.0659 32.663 42.7611 32.4947 42.4991C32.3264 42.237 32.0865 42.0288 31.8034 41.899C31.0486 41.4295 30.1733 41.1905 29.2846 41.2111C28.7899 41.2098 28.2976 41.2805 27.8232 41.4211Z" fill="#292A2E"/>
<path d="M30.2429 45.9102L30.1506 40.8367L28.8891 40.7858L28.8008 45.9695L30.2429 45.9102Z" fill="#292A2E"/>
<path d="M24.1025 44.4852C24.3252 44.4852 24.5057 44.3047 24.5057 44.082C24.5057 43.8593 24.3252 43.6787 24.1025 43.6787C23.8798 43.6787 23.6992 43.8593 23.6992 44.082C23.6992 44.3047 23.8798 44.4852 24.1025 44.4852Z" fill="#292A2E"/>
<path d="M24.4169 42.3276C24.6396 42.3276 24.8202 42.1471 24.8202 41.9244C24.8202 41.7017 24.6396 41.5211 24.4169 41.5211C24.1942 41.5211 24.0137 41.7017 24.0137 41.9244C24.0137 42.1471 24.1942 42.3276 24.4169 42.3276Z" fill="#292A2E"/>
<path d="M154.896 58.3188C154.802 58.3188 154.71 58.2886 154.635 58.2327C154.559 58.1768 154.504 58.0981 154.476 58.0082C153.019 52.5674 152.63 46.8957 153.331 41.307C154.467 33.1367 158.973 22.4138 173.99 17.7186C176.103 17.0392 178.27 16.5423 180.468 16.2334C181.176 11.814 183.868 7.01986 189.888 3.7122C204.191 -4.14709 213.853 2.9044 213.948 2.97644C214.042 3.04634 214.103 3.1504 214.12 3.26573C214.136 3.38106 214.106 3.49821 214.036 3.59141C213.966 3.68461 213.862 3.74622 213.747 3.7627C213.632 3.77917 213.514 3.74916 213.421 3.67926C213.33 3.61073 204.097 -3.09286 190.311 4.48267C184.686 7.57377 182.111 12.0103 181.379 16.1289C188.002 15.4766 191.174 17.686 192.598 19.3548C193.479 20.3583 194.045 21.5988 194.226 22.9218C194.406 24.2447 194.194 25.5916 193.614 26.7946C193.157 27.767 192.415 28.5776 191.486 29.1194C190.558 29.6613 189.488 29.9089 188.416 29.8295C184.717 29.6125 181.656 26.5007 180.618 21.9017C180.276 20.3448 180.185 18.7432 180.348 17.1576C178.281 17.4546 176.242 17.9235 174.253 18.5593C162.548 22.2188 155.804 29.9143 154.201 41.4304C153.515 46.8924 153.893 52.4356 155.316 57.7534C155.336 57.8191 155.341 57.8886 155.329 57.9563C155.317 58.024 155.29 58.0881 155.249 58.1433C155.208 58.1985 155.155 58.2434 155.094 58.2743C155.032 58.3053 154.965 58.3214 154.896 58.3214V58.3188ZM181.244 17.0478C181.061 18.6032 181.139 20.1783 181.475 21.7079C182.424 25.9152 185.169 28.7586 188.467 28.9523C189.366 29.0167 190.264 28.8079 191.042 28.3532C191.82 27.8986 192.443 27.2193 192.828 26.4045C193.33 25.3555 193.513 24.1819 193.353 23.0299C193.193 21.8779 192.698 20.7984 191.929 19.9258C189.875 17.5156 186.126 16.5422 181.244 17.0478Z" fill="#292A2E"/>
<path d="M224.181 7.41675C223.589 7.41551 223.01 7.247 222.51 6.93066C222.01 6.61432 221.61 6.16306 221.355 5.62895C221.101 5.09484 221.002 4.49965 221.072 3.91209C221.141 3.32452 221.375 2.76853 221.747 2.30827C222.118 1.84802 222.613 1.50227 223.173 1.31092C223.732 1.11958 224.335 1.09044 224.911 1.22687C225.486 1.3633 226.012 1.65974 226.426 2.08198C226.841 2.50421 227.127 3.03503 227.253 3.61317C227.351 4.07146 227.346 4.54597 227.237 5.00196C227.129 5.45794 226.92 5.88385 226.625 6.24851C226.33 6.61316 225.958 6.90733 225.535 7.10947C225.112 7.3116 224.649 7.41659 224.181 7.41675ZM224.187 2.02084C223.72 2.02083 223.264 2.16573 222.883 2.43557C222.502 2.70541 222.213 3.0869 222.058 3.52747C221.902 3.96804 221.887 4.446 222.015 4.89547C222.142 5.34493 222.406 5.74378 222.77 6.03705C223.133 6.33031 223.579 6.50355 224.045 6.53289C224.512 6.56222 224.976 6.44621 225.373 6.20085C225.771 5.95548 226.082 5.59283 226.265 5.16289C226.448 4.73295 226.493 4.25688 226.394 3.80029C226.287 3.29513 226.009 2.84232 225.607 2.51819C225.205 2.19405 224.704 2.0184 224.187 2.02084Z" fill="#292A2E"/>
<path d="M222.858 14.5864C222.053 14.5864 221.279 14.2776 220.694 13.7238C220.11 13.17 219.76 12.4132 219.717 11.6093C219.674 10.8054 219.94 10.0155 220.462 9.40219C220.984 8.78892 221.72 8.39895 222.521 8.31257C223.321 8.22619 224.124 8.44998 224.765 8.93785C225.405 9.42573 225.834 10.1406 225.964 10.9352C226.093 11.7299 225.913 12.5438 225.46 13.2096C225.007 13.8753 224.316 14.3421 223.53 14.5139C223.309 14.5621 223.084 14.5864 222.858 14.5864ZM222.869 9.19007C222.707 9.19014 222.545 9.20766 222.386 9.24234C221.825 9.36558 221.332 9.69918 221.01 10.1745C220.687 10.6498 220.559 11.2308 220.652 11.7977C220.744 12.3647 221.051 12.8746 221.508 13.2225C221.965 13.5704 222.538 13.7299 223.109 13.6681C223.68 13.6063 224.206 13.3279 224.578 12.8903C224.95 12.4527 225.141 11.8891 225.11 11.3154C225.079 10.7417 224.83 10.2017 224.413 9.80634C223.996 9.411 223.444 9.19045 222.869 9.19007Z" fill="#292A2E"/>
<path d="M227.576 8.69994C227.852 7.19956 226.256 5.64723 224.009 5.23271C221.763 4.81819 219.718 5.69846 219.441 7.19883C219.164 8.69921 220.761 10.2515 223.007 10.666C225.253 11.0806 227.299 10.2003 227.576 8.69994Z" fill="white"/>
<path d="M224.113 11.2086C223.715 11.208 223.318 11.1712 222.927 11.0988C221.822 10.9155 220.795 10.4139 219.971 9.65541C219.61 9.34775 219.333 8.95416 219.165 8.511C218.997 8.06784 218.943 7.58943 219.009 7.11998C219.115 6.65806 219.336 6.23038 219.651 5.87645C219.967 5.52253 220.366 5.25376 220.813 5.09498C221.858 4.70033 222.99 4.59887 224.089 4.80156C225.187 5.00425 226.209 5.50338 227.044 6.24497C227.405 6.55262 227.682 6.94622 227.851 7.38937C228.019 7.83253 228.073 8.31095 228.007 8.7804C227.901 9.24232 227.68 9.66999 227.364 10.0239C227.049 10.3778 226.649 10.6466 226.203 10.8054C225.541 11.0795 224.83 11.2167 224.113 11.2086ZM222.9 5.56938C222.303 5.56179 221.711 5.6749 221.16 5.9019C220.848 6.00638 220.566 6.18707 220.342 6.4276C220.117 6.66813 219.956 6.96091 219.873 7.27943C219.837 7.60662 219.883 7.93764 220.007 8.24252C220.131 8.5474 220.329 8.81651 220.583 9.0255C221.294 9.64565 222.158 10.0632 223.086 10.2344C224.013 10.4056 224.969 10.3241 225.855 9.99847C226.167 9.89399 226.448 9.71331 226.673 9.47278C226.897 9.23225 227.058 8.93947 227.142 8.62094C227.178 8.29374 227.132 7.96264 227.008 7.65772C226.884 7.3528 226.685 7.08371 226.431 6.87487C225.732 6.23696 224.861 5.81672 223.927 5.66558C223.589 5.60257 223.245 5.57038 222.901 5.56938H222.9Z" fill="#292A2E"/>
<path d="M223.001 5.13167L222.117 10.4318L223.42 10.7288L224.513 5.34822L223.001 5.13167Z" fill="#292A2E"/>
<path d="M228.296 10.8338C228.532 10.8338 228.723 10.6427 228.723 10.4069C228.723 10.171 228.532 9.97989 228.296 9.97989C228.061 9.97989 227.869 10.171 227.869 10.4069C227.869 10.6427 228.061 10.8338 228.296 10.8338Z" fill="#292A2E"/>
<path d="M229.04 8.64806C229.276 8.64806 229.467 8.4569 229.467 8.22109C229.467 7.98529 229.276 7.79413 229.04 7.79413C228.805 7.79413 228.614 7.98529 228.614 8.22109C228.614 8.4569 228.805 8.64806 229.04 8.64806Z" fill="#292A2E"/>
</svg>
