<svg width="16" height="16" viewBox="0 0 16 16" fill="none" xmlns="http://www.w3.org/2000/svg">
<g clip-path="url(#clip0_259_15739)">
<path d="M8 0C3.58891 0 0 3.58872 0 8C0 12.4113 3.58891 16 8 16C12.4113 16 16 12.4113 16 8C16 3.58872 12.4111 0 8 0ZM8 14.8321C4.23281 14.8321 1.16788 11.7672 1.16788 8C1.16788 4.23281 4.23281 1.16788 8 1.16788C11.7672 1.16788 14.8321 4.23278 14.8321 7.99981C14.8321 11.7672 11.7672 14.8321 8 14.8321Z" fill="#6A7A99"/>
<path d="M10.7251 7.99995H8.19472V4.49629C8.19472 4.17376 7.93331 3.91235 7.61078 3.91235C7.28825 3.91235 7.02684 4.17376 7.02684 4.49629V8.58389C7.02684 8.90642 7.28825 9.16782 7.61078 9.16782H10.7251C11.0477 9.16782 11.3091 8.90642 11.3091 8.58389C11.3091 8.26135 11.0477 7.99995 10.7251 7.99995Z" fill="#6A7A99"/>
</g>
<defs>
<clipPath id="clip0_259_15739">
<rect width="16" height="16" fill="white"/>
</clipPath>
</defs>
</svg>
