<svg width="12" height="12" viewBox="0 0 12 12" fill="none" xmlns="http://www.w3.org/2000/svg">
<g clip-path="url(#clip0_423_1674)">
<path d="M10.4038 4.6153L3.31626 0.246428C2.8035 -0.0692515 2.18355 -0.0823765 1.65787 0.211319C1.13219 0.504967 0.818359 1.03983 0.818359 1.64197V10.3399C0.818359 11.2504 1.55195 11.995 2.4536 12C2.45606 12 2.45852 12 2.46093 12C2.7427 12 3.03632 11.9116 3.31057 11.7443C3.53119 11.6097 3.60091 11.3217 3.46631 11.1012C3.33171 10.8805 3.04371 10.8108 2.82316 10.9454C2.69489 11.0236 2.56961 11.0641 2.45864 11.0641C2.11844 11.0622 1.7542 10.7708 1.7542 10.3399V1.64199C1.7542 1.38369 1.88882 1.1543 2.11429 1.02833C2.33978 0.90235 2.60568 0.907975 2.82536 1.04323L9.9129 5.4121C10.1259 5.54326 10.2478 5.76195 10.2473 6.01212C10.2468 6.26227 10.124 6.48048 9.90981 6.61119L4.78549 9.74872C4.56509 9.88367 4.4958 10.1717 4.63076 10.3921C4.76569 10.6125 5.05376 10.6818 5.27417 10.5469L10.3979 7.4097C10.8884 7.11043 11.182 6.58871 11.1832 6.014C11.1844 5.43936 10.8929 4.91642 10.4038 4.6153Z" fill="#ffffff"/>
</g>
<defs>
<clipPath id="clip0_423_1674">
<rect width="12" height="12" fill="white"/>
</clipPath>
</defs>
</svg>
