<svg width="70" height="70" viewBox="0 0 70 70" fill="none" xmlns="http://www.w3.org/2000/svg">
<circle cx="35" cy="35" r="35" fill="white"/>
<g clip-path="url(#clip0_380_6622)">
<path d="M36.9341 31.0488C36.2184 31.0488 35.5717 31.3634 35.1077 31.8702C35.0495 31.9337 34.9496 31.9337 34.8914 31.8702C34.4274 31.3634 33.7808 31.0488 33.0651 31.0488C31.6528 31.0488 30.5078 32.2737 30.5078 33.7847C30.5078 36.0454 31.7114 37.234 34.3771 38.6077C34.5393 38.6911 34.9996 38.95 34.9996 38.95C34.9996 38.95 35.46 38.6911 35.6222 38.6077C38.2876 37.234 39.4912 36.0454 39.4912 33.7847C39.4911 32.2737 38.3464 31.0488 36.9341 31.0488Z" fill="#B2F0FB"/>
<path d="M49.153 32.1444C49.0795 31.6077 48.8038 31.1311 48.3757 30.8002L45.836 28.6266V23.6383C45.836 23.3148 45.5736 23.0524 45.25 23.0524H42.676C42.3524 23.0524 42.09 23.3148 42.09 23.6383V25.4207L36.2673 20.4373C36.2586 20.4299 36.2497 20.4227 36.2406 20.4158C35.5103 19.8614 34.4902 19.8614 33.7599 20.4158C33.7509 20.4227 33.742 20.4299 33.7333 20.4373L21.6248 30.8002C21.1967 31.1311 20.921 31.6077 20.8475 32.1444C20.7731 32.6873 20.9146 33.2267 21.246 33.663C21.5772 34.0994 22.0586 34.3807 22.6015 34.4551C22.6959 34.468 22.7903 34.4744 22.884 34.4744C23.2277 34.4744 23.563 34.3883 23.864 34.2229V49.414C23.864 49.7376 24.1264 50 24.45 50H45.5506C45.8742 50 46.1366 49.7376 46.1366 49.414V34.2229C46.4367 34.3879 46.7715 34.474 47.1196 34.474C47.7674 34.474 48.3634 34.1783 48.7545 33.663C49.0859 33.2267 49.2274 32.6873 49.153 32.1444ZM43.262 24.2243H44.6641V27.6236L43.262 26.4237V24.2243ZM32.5118 48.828V42.0794H37.4888V48.828H32.5118ZM38.6607 48.828V41.4935C38.6607 41.1699 38.3983 40.9075 38.0747 40.9075H31.9258C31.6022 40.9075 31.3398 41.1699 31.3398 41.4935V48.828H25.0359V33.2673L35.0003 24.6635L44.9646 33.2673V48.828H38.6607ZM47.821 32.9544C47.6534 33.1754 47.3977 33.3021 47.1196 33.3021C46.9321 33.3021 46.7535 33.2436 46.602 33.1327L35.3832 23.4458C35.1632 23.2559 34.8373 23.2559 34.6173 23.4458L23.3985 33.1327C23.2138 33.2679 22.988 33.325 22.7605 33.2939C22.5278 33.2621 22.3215 33.1415 22.1794 32.9544C22.0374 32.7673 21.9768 32.5361 22.0086 32.3034C22.0404 32.0707 22.161 31.8643 22.3481 31.7223C22.3572 31.7154 22.3661 31.7082 22.3748 31.7008L34.4806 21.3403C34.7888 21.1144 35.2118 21.1144 35.52 21.3403L47.6257 31.7008C47.6344 31.7082 47.6433 31.7154 47.6524 31.7223C47.8395 31.8643 47.9601 32.0707 47.992 32.3034C48.0238 32.5361 47.9631 32.7673 47.821 32.9544Z" fill="#020288"/>
</g>
<defs>
<clipPath id="clip0_380_6622">
<rect width="30" height="30" fill="white" transform="translate(20 20)"/>
</clipPath>
</defs>
</svg>
