<svg width="70" height="70" viewBox="0 0 70 70" fill="none" xmlns="http://www.w3.org/2000/svg">
<circle cx="35" cy="35" r="35" fill="white"/>
<g clip-path="url(#clip0_380_6636)">
<path fill-rule="evenodd" clip-rule="evenodd" d="M34.47 24.8066C28.5023 23.7294 24.0677 30.3647 27.2854 35.4548C31.4174 41.8911 41.3951 38.1548 40.1645 30.5011L38.7811 29.1178L34.7817 30.1894L35.8534 26.19L34.47 24.8066Z" fill="#E2C4FF"/>
<path d="M32.2368 31.6206C30.575 32.9314 27.0578 35.2921 25.573 35.38C25.4641 34.6615 24.4263 34.7218 24.4062 35.4536C24.4062 35.8946 24.6142 36.2491 24.9768 36.4263C25.7978 36.7684 26.7989 36.3825 28.5108 35.4946C29.8765 34.756 31.4968 33.6809 32.9562 32.5449C33.2115 32.3462 33.2573 31.9783 33.0587 31.723C32.8599 31.4678 32.4919 31.4219 32.2368 31.6206Z" fill="#020288"/>
<path d="M48.2942 37.1931C47.1705 34.6859 45.114 30.5639 44.3391 27.9673C44.1192 27.3181 43.8401 26.6851 43.5082 26.0825L44.9367 20.7513C44.9908 20.5492 44.933 20.3335 44.7851 20.1855C44.6371 20.0375 44.4214 19.9797 44.2193 20.034L38.8889 21.4622C31.2607 17.1402 21.4209 22.9448 21.5302 31.7274C21.5301 34.0159 22.2022 35.6788 22.9806 37.6044C24.0726 40.3061 25.3104 43.3683 25.3097 49.4142C25.3097 49.5695 25.3714 49.7185 25.4813 49.8284C25.5911 49.9382 25.7401 49.9999 25.8954 49.9999H38.5437C38.8671 49.9999 39.1293 49.7377 39.1293 49.4143C39.1293 46.514 39.5907 45.5489 42.3212 45.5489C46.6932 45.6659 45.7117 42.7341 45.8352 39.6337H46.7812C48.0077 39.6537 48.8591 38.2863 48.2942 37.1931ZM41.1838 22.06L35.9326 25.4422L34.3748 23.8844L41.1838 22.06ZM36.3596 26.5603L42.1209 22.8497L38.4103 28.611L35.609 29.3616L36.3596 26.5603ZM42.9107 23.7867L41.0862 30.5958L39.5284 29.0381L42.9107 23.7867ZM47.22 38.2131C47.1738 38.2881 47.0387 38.4624 46.782 38.4624H45.2494C44.9259 38.4624 44.6637 38.7246 44.6637 39.048V42.3277C44.6637 43.5005 44.4377 43.8444 44.2407 44.0131C43.9423 44.2685 43.3682 44.3776 42.3211 44.3776C39.088 44.3385 37.983 45.9326 37.9652 48.8286H26.4771C26.3973 42.9323 25.1085 39.7433 24.0665 37.1654C23.3038 35.2785 22.7014 33.7881 22.7014 31.7273C22.5949 24.4022 30.3844 19.1289 37.1414 21.9305L33.0918 23.0156C32.6643 23.1196 32.5108 23.6916 32.8292 23.9955L35.1992 26.3655L34.2151 30.0383C34.1609 30.2404 34.2187 30.456 34.3667 30.604C34.5147 30.752 34.7302 30.8098 34.9324 30.7556L38.6052 29.7715L40.9752 32.1415C41.0865 32.2528 41.2361 32.3131 41.3894 32.3131C41.6497 32.3155 41.8902 32.1315 41.9551 31.879L43.0403 27.829C43.6407 29.4891 44.0012 30.6914 44.7587 32.302L47.2339 37.6908C47.3592 37.9093 47.2709 38.1428 47.22 38.2131Z" fill="#020288"/>
</g>
<defs>
<clipPath id="clip0_380_6636">
<rect width="30" height="30" fill="white" transform="translate(20 20)"/>
</clipPath>
</defs>
</svg>
