<svg width="70" height="70" viewBox="0 0 70 70" fill="none" xmlns="http://www.w3.org/2000/svg">
<circle cx="35" cy="35" r="35" fill="white"/>
<path fill-rule="evenodd" clip-rule="evenodd" d="M26.709 38.6621V46.2793H43.2911V38.6621H37.3438V39.834C37.3438 40.4785 36.8165 41.0059 36.1719 41.0059H33.8282C33.1837 41.0059 32.6563 40.4785 32.6563 39.834V38.6621H26.709Z" fill="#FFBEBC"/>
<path fill-rule="evenodd" clip-rule="evenodd" d="M26.709 38.6621H32.6563C32.6563 37.373 33.711 36.3184 35.0001 36.3184C36.2892 36.3184 37.3438 37.373 37.3438 38.6621H43.2911V31.6309C43.2911 30.3418 42.2365 29.2871 40.9474 29.2871H29.0527C27.7637 29.2871 26.709 30.3418 26.709 31.6309V38.6621Z" fill="#FFBEBC"/>
<path d="M48.2422 25.7715H40.2003C40.0528 24.293 38.8017 23.1348 37.2852 23.1348H32.7148C31.1983 23.1348 29.9472 24.293 29.7997 25.7715H21.7578C20.7886 25.7715 20 26.56 20 27.5293V45.1074C20 46.0767 20.7886 46.8652 21.7578 46.8652H48.2422C49.2114 46.8652 50 46.0767 50 45.1074V27.5293C50 26.56 49.2114 25.7715 48.2422 25.7715ZM32.7148 24.3066H37.2852C38.1546 24.3066 38.8787 24.9412 39.0185 25.7715H30.9814C31.1213 24.9412 31.8453 24.3066 32.7148 24.3066ZM21.1719 27.5293C21.1719 27.2062 21.4347 26.9434 21.7578 26.9434H48.2422C48.5653 26.9434 48.8281 27.2062 48.8281 27.5293V35.1465C48.8281 36.762 47.5139 38.0762 45.8984 38.0762H37.8708C37.5986 36.7406 36.4149 35.7325 35 35.7325C33.5851 35.7325 32.4014 36.7406 32.1291 38.0762H24.1016C22.4861 38.0762 21.1719 36.762 21.1719 35.1465V27.5293ZM33.2422 39.248H36.7578V39.834C36.7578 40.1571 36.495 40.4199 36.1719 40.4199H33.8281C33.505 40.4199 33.2422 40.1571 33.2422 39.834V39.248ZM33.3426 38.0762C33.5844 37.3941 34.2361 36.9043 35 36.9043C35.7639 36.9043 36.4156 37.3941 36.6574 38.0762H33.3426ZM48.8281 45.1074C48.8281 45.4305 48.5653 45.6934 48.2422 45.6934H21.7578C21.4347 45.6934 21.1719 45.4305 21.1719 45.1074V38.0142C21.9169 38.7752 22.955 39.248 24.1016 39.248H32.0703V39.834C32.0703 40.8032 32.8589 41.5918 33.8281 41.5918H36.1719C37.1411 41.5918 37.9297 40.8032 37.9297 39.834V39.248H45.8984C47.045 39.248 48.0832 38.7752 48.8281 38.0142V45.1074Z" fill="#020288"/>
</svg>
