<svg width="70" height="70" viewBox="0 0 70 70" fill="none" xmlns="http://www.w3.org/2000/svg">
<circle cx="35" cy="35" r="35" fill="white"/>
<g clipPath="url(#clip0_380_6664)">
<path fill-rule="evenodd" clip-rule="evenodd" d="M26.5039 39.1309H43.4961V42.0605H26.5039V39.1309Z" fill="#FFF59B"/>
<path d="M28.7891 34.3848H41.0938V36.7285H28.7891V34.3848Z" fill="#FFF59B"/>
<path d="M49.4141 43.7598H48.7695V26.8262C48.7695 26.5026 48.5071 26.2402 48.1836 26.2402H41.7383V25.6543C41.7383 25.3307 41.4759 25.0684 41.1523 25.0684H38.8086V24.1895C38.8086 22.0894 37.1001 20.3809 35 20.3809C32.8999 20.3809 31.1914 22.0894 31.1914 24.1895V25.0684H28.8477C28.524 25.0684 28.2617 25.3307 28.2617 25.6543V26.2402H21.8164C21.4929 26.2402 21.2305 26.5026 21.2305 26.8262V43.7598H20.5859C20.2623 43.7598 20 44.0221 20 44.3457V45.5176C20 47.7792 21.84 49.6191 24.1016 49.6191H45.8984C48.16 49.6191 50 47.7792 50 45.5176V44.3457C50 44.0221 49.7376 43.7598 49.4141 43.7598ZM47.5977 27.4121V43.7598H46.4258V29.1699C46.4258 28.8464 46.1634 28.584 45.8398 28.584H41.7383V27.4121H47.5977ZM24.7461 43.7598V29.7559H28.2617V36.7871C28.2617 37.1107 28.524 37.373 28.8477 37.373H41.1523C41.4759 37.373 41.7383 37.1107 41.7383 36.7871V29.7559H45.2539V43.7598C44.2282 43.7598 25.7839 43.7598 24.7461 43.7598ZM38.8347 44.9316C38.643 45.5752 37.9544 46.1035 37.2852 46.1035H32.7148C32.0456 46.1035 31.357 45.5752 31.1653 44.9316H38.8347ZM32.3633 24.1895C32.3633 22.7356 33.5461 21.5527 35 21.5527C36.4539 21.5527 37.6367 22.7356 37.6367 24.1895V25.0684H32.3633V24.1895ZM29.4336 26.2402H31.1914V27.998C31.1914 28.3217 31.4537 28.584 31.7773 28.584C32.101 28.584 32.3633 28.3217 32.3633 27.998V26.2402H37.6367V27.998C37.6367 28.3217 37.8991 28.584 38.2227 28.584C38.5462 28.584 38.8086 28.3217 38.8086 27.998V26.2402H40.5664V36.2012H29.4336V26.2402ZM22.4023 27.4121H28.2617V28.584H24.1602C23.8366 28.584 23.5742 28.8464 23.5742 29.1699V43.7598H22.4023V27.4121ZM48.8281 45.5176C48.8281 47.133 47.5139 48.4473 45.8984 48.4473H24.1016C22.4861 48.4473 21.1719 47.133 21.1719 45.5176V44.9316H29.9609L29.9996 45.1031C30.2737 46.3213 31.4663 47.2754 32.7148 47.2754H37.2852C38.5337 47.2754 39.7263 46.3213 40.0005 45.1031L40.0391 44.9316H48.8281V45.5176Z" fill="#020288"/>
<path d="M24.7461 46.1035C24.4267 46.1035 24.1602 46.3704 24.1602 46.6895C24.1602 47.0089 24.4268 47.2754 24.7461 47.2754C25.0654 47.2754 25.332 47.0085 25.332 46.6895C25.3321 46.3813 25.0667 46.1035 24.7461 46.1035Z" fill="#020288"/>
<path d="M27.0898 46.1035C26.7732 46.1035 26.504 46.374 26.5039 46.6894C26.5038 46.9972 26.7708 47.2754 27.0898 47.2754C27.4071 47.2754 27.6757 47.0059 27.6758 46.6895C27.6758 46.3822 27.4085 46.1036 27.0898 46.1035Z" fill="#020288"/>
</g>
<defs>
<clipPath id="clip0_380_6664">
<rect width="30" height="30" fill="white" transform="translate(20 20)"/>
</clipPath>
</defs>
</svg>
