<svg width="70" height="70" viewBox="0 0 70 70" fill="none" xmlns="http://www.w3.org/2000/svg">
<circle cx="35" cy="35" r="35" fill="white"/>
<path d="M24.7969 27.1807V39.6574H45.2049V27.1807H24.7969ZM38.9538 36.2698C36.4331 37.3688 33.5687 37.3688 31.0481 36.2698V32.3802L29.3511 31.7135L35.0009 29.4942L40.6507 31.7136L38.9538 32.3802V36.2698Z" fill="#E2C4FF"/>
<path d="M49.4141 41.6652H48.3681V26.1147C48.3681 24.9579 47.4269 24.0166 46.2699 24.0166H23.7301C22.5731 24.0166 21.6319 24.9578 21.6319 26.1147V41.6652H20.5859C20.2623 41.6652 20 41.9275 20 42.2511V43.4841C20 44.862 21.121 45.983 22.499 45.983H47.501C48.879 45.983 50 44.862 50 43.4841V42.2511C50 41.9275 49.7377 41.6652 49.4141 41.6652ZM22.8038 26.1147C22.8038 25.604 23.2193 25.1885 23.7301 25.1885H46.2699C46.7807 25.1885 47.1962 25.604 47.1962 26.1147V39.0714H22.8038V26.1147ZM22.8038 40.2433H47.1962V41.6652H22.8038V40.2433ZM48.8281 43.4841C48.8281 44.2158 48.2328 44.8111 47.501 44.8111H22.499C21.7672 44.8111 21.1719 44.2158 21.1719 43.4841V42.837H34.4141V43.021C34.4141 43.3445 34.6764 43.6069 35 43.6069C35.3236 43.6069 35.5859 43.3445 35.5859 43.021V42.837H48.8281V43.4841Z" fill="#020288"/>
<path d="M40.8635 31.1682L35.2137 28.9488C35.0759 28.8947 34.9229 28.8947 34.7852 28.9488L29.1354 31.1682C28.9112 31.2562 28.7637 31.4726 28.7637 31.7136C28.7637 31.9545 28.9112 32.1709 29.1354 32.2589L30.4607 32.7796V36.2699C30.4607 36.503 30.5988 36.7138 30.8124 36.807C32.1429 37.387 33.5712 37.6771 34.9994 37.6771C36.4276 37.6771 37.856 37.3871 39.1864 36.807C39.4 36.7138 39.5381 36.503 39.5381 36.2699V32.7796L40.8634 32.2589C41.0876 32.1709 41.2351 31.9545 41.2351 31.7136C41.2351 31.4726 41.0877 31.2562 40.8635 31.1682ZM34.9994 30.1237L39.0466 31.7136L34.9994 33.3034L30.9521 31.7136L34.9994 30.1237ZM38.3663 35.8775C36.2065 36.7148 33.7923 36.7148 31.6325 35.8775V33.2398L34.7852 34.4782C34.854 34.5053 34.9267 34.5188 34.9994 34.5188C35.0721 34.5188 35.1448 34.5053 35.2136 34.4782L38.3663 33.2398V35.8775Z" fill="#020288"/>
</svg>
