<svg width="70" height="70" viewBox="0 0 70 70" fill="none" xmlns="http://www.w3.org/2000/svg">
<circle cx="35" cy="35" r="35" fill="white"/>
<g clipPath="url(#clip0_380_6696)">
<path d="M40.025 46.2592C38.1676 45.0704 37.0586 43.044 37.0586 40.8387V38.6522L40.5886 37.2402L44.1186 38.6522V40.8387C44.1186 43.044 43.0096 45.0704 41.1521 46.2592L40.5886 46.6199L40.025 46.2592Z" fill="#8FEFFA"/>
<path d="M38.2358 22.9395V35.6474L35.4871 36.747L34.7058 37.0594V40.8394C34.7058 41.3518 34.7506 41.8584 34.8376 42.3543H25.8809V22.9395H38.2358Z" fill="#8FEFFA"/>
<path d="M32.0575 44.1211C31.0856 44.1211 30.2949 44.9118 30.2949 45.8837C30.2949 46.8555 31.0856 47.6463 32.0575 47.6463C33.0294 47.6463 33.8202 46.8555 33.8202 45.8837C33.8202 44.9118 33.0294 44.1211 32.0575 44.1211ZM32.0575 46.4744C31.7318 46.4744 31.4668 46.2094 31.4668 45.8837C31.4668 45.5579 31.7318 45.293 32.0575 45.293C32.3833 45.293 32.6483 45.5579 32.6483 45.8837C32.6483 46.2094 32.3833 46.4744 32.0575 46.4744Z" fill="#090E8B"/>
<path d="M39.8265 41.6458C39.5976 41.4171 39.2266 41.4171 38.9978 41.6458C38.769 41.8747 38.769 42.2456 38.9978 42.4745L39.8803 43.357C40.1092 43.5858 40.48 43.5857 40.709 43.357L42.474 41.592C42.7028 41.3632 42.7028 40.9922 42.474 40.7633C42.2452 40.5346 41.8743 40.5346 41.6453 40.7633L40.2946 42.114L39.8265 41.6458Z" fill="#090E8B"/>
<path d="M46.6898 36.5151L41.1748 34.3091V22.3509C41.1748 21.0546 40.1202 20 38.8239 20H25.2923C23.996 20 22.9414 21.0546 22.9414 22.3509V47.6491C22.9414 48.9454 23.996 50 25.2923 50H40.5888C40.6664 50 40.7554 49.9826 40.8376 49.944C40.8579 49.9344 40.8775 49.9238 40.8965 49.912C40.8992 49.9104 42.7368 48.735 42.7368 48.735C45.4426 47.003 47.0581 44.0513 47.0581 40.8392V37.0591C47.0581 36.8196 46.9123 36.6041 46.6898 36.5151ZM24.1133 47.6491V22.3509C24.1133 21.7007 24.6421 21.1719 25.2923 21.1719H38.8239C39.474 21.1719 40.0029 21.7007 40.0029 22.3509V34.3091L34.488 36.5151C34.2655 36.604 34.1196 36.8195 34.1196 37.0591V40.8392C34.1196 42.254 34.4468 43.6723 35.066 44.9423C35.0694 44.9501 35.0729 44.9578 35.0768 44.9656C36.3353 47.5306 38.4077 48.7003 38.4707 48.7541L38.4709 48.7538C38.4827 48.7614 38.4281 48.7263 38.5864 48.8281H25.2923C24.6421 48.8281 24.1133 48.2993 24.1133 47.6491ZM45.8862 40.8392C45.8862 43.6498 44.4727 46.2325 42.1051 47.7479L40.5889 48.7184C38.9071 47.6421 37.2996 46.8186 36.1391 44.47C36.1358 44.4627 36.1324 44.4553 36.1288 44.4481C35.5811 43.3321 35.2916 42.0842 35.2916 40.8392V37.4559L40.5889 35.3369L45.8862 37.4558V40.8392Z" fill="#090E8B"/>
<path d="M28.2344 27.6436H35.8827C36.2063 27.6436 36.4686 27.3812 36.4686 27.0576C36.4686 26.7341 36.2063 26.4717 35.8827 26.4717H28.2344C27.9108 26.4717 27.6484 26.7341 27.6484 27.0576C27.6484 27.3812 27.9108 27.6436 28.2344 27.6436Z" fill="#090E8B"/>
<path d="M28.2344 29.9971H35.8827C36.2063 29.9971 36.4686 29.7347 36.4686 29.4111C36.4686 29.0875 36.2063 28.8252 35.8827 28.8252H28.2344C27.9108 28.8252 27.6484 29.0875 27.6484 29.4111C27.6484 29.7347 27.9108 29.9971 28.2344 29.9971Z" fill="#090E8B"/>
<path d="M36.4686 31.7637C36.4686 31.4401 36.2063 31.1777 35.8827 31.1777H28.2344C27.9108 31.1777 27.6484 31.4401 27.6484 31.7637C27.6484 32.0872 27.9108 32.3496 28.2344 32.3496H35.8827C36.2063 32.3496 36.4686 32.0873 36.4686 31.7637Z" fill="#090E8B"/>
</g>
<defs>
<clipPath id="clip0_380_6696">
<rect width="30" height="30" fill="white" transform="translate(20 20)"/>
</clipPath>
</defs>
</svg>
